<?xml version="1.0"?><svg xmlns="http://www.w3.org/2000/svg"  viewBox="0 0 64 64" width="64px" height="64px">    <path d="M 22.40625 6 C 21.14525 6 20.009031 6.7964219 19.582031 7.9824219 L 2.5410156 55.322266 C 2.3210156 55.934266 2.4131094 56.618391 2.7871094 57.150391 C 3.1611094 57.682391 3.7728281 58 4.4238281 58 L 9.59375 58 C 10.85475 58 11.990969 57.203578 12.417969 56.017578 L 15.302734 48 L 34.697266 48 L 37.583984 56.017578 C 38.009984 57.203578 39.14525 58 40.40625 58 L 45.576172 58 C 46.226172 58 46.838891 57.683391 47.212891 57.150391 C 47.586891 56.617391 47.678984 55.934266 47.458984 55.322266 L 30.417969 7.9824219 C 29.990969 6.7964219 28.85475 6 27.59375 6 L 22.40625 6 z M 22.40625 8 L 27.59375 8 C 28.01375 8 28.392156 8.2651563 28.535156 8.6601562 L 45.576172 56 L 40.40625 56 C 39.98625 56 39.607844 55.734844 39.464844 55.339844 L 36.341797 46.660156 C 36.198797 46.264156 35.822391 46 35.400391 46 L 14.599609 46 C 14.177609 46 13.801203 46.264156 13.658203 46.660156 L 10.535156 55.339844 C 10.393156 55.734844 10.01475 56 9.59375 56 L 4.4238281 56 L 21.464844 8.6601562 C 21.606844 8.2651563 21.98525 8 22.40625 8 z M 50 10 C 48.897 10 48 10.897 48 12 L 48 18 L 42 18 C 40.897 18 40 18.897 40 20 L 40 22 C 40 23.103 40.897 24 42 24 L 48 24 L 48 30 C 48 31.103 48.897 32 50 32 L 52 32 C 53.103 32 54 31.103 54 30 L 54 24 L 60 24 C 61.103 24 62 23.103 62 22 L 62 20 C 62 18.897 61.103 18 60 18 L 54 18 L 54 12 C 54 10.897 53.103 10 52 10 L 50 10 z M 50 12 L 52 12 L 52 19 C 52 19.553 52.448 20 53 20 L 60 20 L 60 22 L 53 22 C 52.448 22 52 22.447 52 23 L 52 30 L 50 30 L 50 23 C 50 22.447 49.552 22 49 22 L 42 22 L 42 20 L 49 20 C 49.552 20 50 19.553 50 19 L 50 12 z M 25 17.111328 C 24.578 17.111328 24.201594 17.375484 24.058594 17.771484 L 16.539062 38.660156 C 16.429063 38.967156 16.475109 39.307219 16.662109 39.574219 C 16.849109 39.841219 17.154469 40 17.480469 40 L 32.519531 40 C 32.845531 40 33.150891 39.841219 33.337891 39.574219 C 33.524891 39.307219 33.570937 38.967156 33.460938 38.660156 L 25.941406 17.771484 C 25.798406 17.375484 25.422 17.111328 25 17.111328 z M 25 21.0625 L 31.097656 38 L 18.902344 38 L 25 21.0625 z M 17 50.056641 C 16.448 50.056641 16 50.503641 16 51.056641 L 16 53.056641 C 16 53.609641 16.448 54.056641 17 54.056641 C 17.552 54.056641 18 53.609641 18 53.056641 L 18 51.056641 C 18 50.503641 17.552 50.056641 17 50.056641 z M 22 50.056641 C 21.448 50.056641 21 50.503641 21 51.056641 L 21 53.056641 C 21 53.609641 21.448 54.056641 22 54.056641 C 22.552 54.056641 23 53.609641 23 53.056641 L 23 51.056641 C 23 50.503641 22.552 50.056641 22 50.056641 z M 27 50.056641 C 26.448 50.056641 26 50.503641 26 51.056641 L 26 53.056641 C 26 53.609641 26.448 54.056641 27 54.056641 C 27.552 54.056641 28 53.609641 28 53.056641 L 28 51.056641 C 28 50.503641 27.552 50.056641 27 50.056641 z M 32 50.056641 C 31.448 50.056641 31 50.503641 31 51.056641 L 31 53.056641 C 31 53.609641 31.448 54.056641 32 54.056641 C 32.552 54.056641 33 53.609641 33 53.056641 L 33 51.056641 C 33 50.503641 32.552 50.056641 32 50.056641 z"/></svg>