<svg width="960" height="532" viewBox="0 0 960 532" fill="none" xmlns="http://www.w3.org/2000/svg">
<path d="M958.965 291.011C954.614 289.422 943.473 287.832 934.496 286.433C924.027 284.802 917.558 285.035 904.272 284.043C880.449 282.264 863.35 282.262 861.36 278.885C857.524 272.377 858.174 265.144 854.982 258.761C851.708 252.213 848.205 246.019 844.625 240.431C840.543 234.059 840.626 226.499 841.415 220.726C841.934 216.93 846.986 215.717 849.574 213.135C851.903 210.811 851.384 203.8 850.596 195.839C849.727 187.072 839.455 185.846 833.478 183.437C830.438 182.212 823.545 182.236 814.986 182.828C805.61 183.476 801.993 193.759 799.196 201.128C797.013 206.879 799.973 212.107 802.358 214.492C806.986 219.12 813.899 220.869 818.1 226.242C822.231 231.525 823.079 239.971 824.483 248.547C825.655 255.703 830.657 262.682 832.253 269.472C832.653 271.073 833.048 272.651 833.646 274.253C834.243 275.855 835.032 277.432 837.04 281.449" stroke="#4D4C48" stroke-width="2" stroke-linecap="round"/>
<path d="M823.891 282.644C819.145 282.644 808.782 281.855 774.619 281.054C767.319 280.883 765.749 279.871 764.542 278.675C759.223 273.409 759.749 263.949 758.948 255.581C758.262 248.416 755.756 239.277 754.567 231.268C753.544 224.381 751.382 217.331 749.391 211.145C747.409 204.983 743.421 199.401 739.631 189.647C736.214 180.85 737.826 174.287 738.813 170.904C741.088 163.1 752.935 162.728 759.713 159.536C767.959 155.653 774.452 151.181 782.622 146.196C789.203 142.181 794.39 141.2 796.978 141.391C799.55 141.581 799.578 147.153 801.759 150.535C803.938 153.914 808.734 154.337 814.28 155.532C824.337 157.699 832.246 154.755 834.631 151.581C840.861 143.291 839.43 124.597 836.657 113.522C834.947 106.693 808.925 108.125 796.81 112.882C793.647 114.125 795.203 120.843 794.216 125.822C792.333 135.329 772.921 130.023 766.341 133.813C759.831 137.562 752.601 137.602 746.415 140.584C739.488 143.924 733.069 149.938 726.495 152.352C720.687 154.485 720.709 140.829 716.723 135.438C712.012 129.068 712.748 118.907 710.537 111.747C709.713 109.079 710.334 105.017 711.517 102.985C715.736 95.7404 723.076 93.0159 727.05 86.83C728.049 85.2751 729.435 84.2421 732.017 83.6325C743.897 80.8274 748.967 88.1987 752.344 88.4019C756.233 88.6359 759.331 85.4255 761.124 82.8436C764.738 77.6392 764.124 60.0485 760.359 46.7922C758.162 39.0607 745.429 40.3972 737.856 39.7936C733.851 39.4743 727.116 38.7955 719.352 39.3871C716.274 39.6218 715.139 41.1622 714.332 42.5608C709.014 51.778 715.091 67.4596 715.521 73.0418C716.057 79.9871 702.397 79.8194 696.605 81.8275C691.143 83.7216 690.826 69.5156 686.445 63.7182C682.132 58.0106 681.263 50.3902 677.474 43.2062C676.5 41.3601 676.864 38.8433 677.653 37.4268C680.666 32.0163 686.809 30.0456 689.2 25.6826C690.594 23.1382 690.013 18.9529 689.224 16.3291C686.896 8.58756 678.49 6.92781 673.099 3.15055C670.253 1.15666 661.791 0.544725 650.842 1.33365C644.574 1.78526 642.211 6.50945 640.221 9.09137C636.255 14.2363 637.418 21.236 638.01 26.0113C638.268 28.0947 639.785 29.2089 641.183 30.0157C643.963 31.6196 648.941 31.6234 653.722 33.2013C663.816 36.5323 658.528 51.5138 660.518 58.2914C663.189 67.3879 666.489 75.0141 668.688 82.993C670.818 90.7205 672.872 98.5144 676.649 104.915C680.684 111.754 682.434 119.242 682.847 125.84C683.43 135.173 662.95 116.899 655.575 114.114C648.559 111.464 642.63 104.969 636.247 101.162C630.45 97.7047 624.293 95.0001 618.316 92.5915C616.785 91.9744 615.137 91.7966 614.324 90.8045C610.658 86.3293 617.886 78.6718 617.504 68.7147C617.221 61.3636 605.574 59.929 596.215 58.9189C589.192 58.161 582.863 58.7097 576.677 60.7C570.355 62.7338 566.917 71.4281 561.335 78.4148C554.29 87.2325 558.92 102.124 560.307 106.302C562.983 114.366 574.83 114.89 598.079 116.48C609.91 117.289 615.448 130 625.034 134.213C631.566 137.084 637.394 140.375 644.363 143.973C651.372 147.592 660.488 149.149 667.278 151.743C674.797 154.615 676.458 162.68 678.848 172.039C679.255 175.829 680.044 179.032 682.225 182.409C683.618 184.208 685.59 186.18 687.622 191.798" stroke="#4D4C48" stroke-width="2" stroke-linecap="round"/>
<path d="M700.772 190.603C701.968 194.165 703.545 202.126 706.343 209.495C710.695 220.963 711.124 230.407 712.72 237.197C714.295 243.898 714.315 249.557 713.927 252.145C712.488 261.729 691.64 253.167 685.454 252.168C677.612 250.903 663 246.807 651.202 244.399C643.869 242.902 635.077 242.409 624.916 241.01C615.701 239.742 608.743 239.623 606.359 236.844C600.084 229.532 597.591 219.721 594.202 213.535C590.411 206.615 584.036 202.174 583.432 199.191C582.258 193.392 594.746 192.611 600.746 188.439C602.96 186.901 601.559 181.136 600.77 177.908C598.089 166.939 582.075 164.712 574.294 162.124C567.09 159.728 555.013 159.524 546.598 163.887C543.265 165.615 540.609 168.274 538.224 171.454C535.84 174.633 534.62 180.203 535.212 186.772C535.943 194.89 544.948 200.142 551.726 203.345C555.687 205.218 560.105 204.54 562.89 206.722C569.069 211.561 568.879 220.056 573.05 226.439C577.485 233.224 580.031 237.603 581.43 240.783C582.08 242.262 580.856 243.963 576.702 244.775C554.592 249.102 530.413 244.393 516.32 243.203C507.82 242.486 496.059 240.807 482.318 238.835C466.092 236.505 468.901 209.8 465.303 201.187C462.26 193.904 460.127 187.447 456.935 181.064C453.656 174.506 452.154 169.099 450.361 166.32C449.435 164.884 449.751 162.751 450.738 161.735C455.823 156.496 465.649 153.978 472.642 146.603C477.277 141.715 474.853 130.107 474.065 119.552C473.355 110.056 460.94 106.547 452.375 104.347C443.799 102.145 435.838 101.359 428.462 100.355C421.131 99.3569 417.095 110.874 413.706 118.656C412.099 122.346 409.911 125.242 409.313 129.802C408.361 137.064 410.293 143.172 412.678 146.154C417.171 151.773 423.43 156.703 426.233 164.276C429.345 172.681 431.797 181.399 434.206 190.172C435.802 196.962 437.392 204.11 439.185 211.097C439.782 212.896 440.571 214.868 442.579 220.486" stroke="#4D4C48" stroke-width="2" stroke-linecap="round"/>
<path d="M449.752 231.244C436.722 231.244 401.651 229.667 383.267 228.657C375.358 228.222 370.883 224.072 367.297 223.086C360.675 221.265 363.687 210.159 361.111 203.973C358.579 197.891 354.148 193.018 344.006 174.95C332.937 155.231 334.21 143.22 332.614 136.64C331.706 132.894 331.413 128.864 332.202 125.481C333.685 119.122 344.92 121.274 351.71 120.084C358.191 118.949 366.03 117.688 372.234 121.256C375.54 123.157 381.57 124.86 389.333 124.268C392.412 124.033 393.547 122.493 394.354 121.094C397.6 115.467 397.157 102.244 392.597 92.8067C389.384 86.158 379.657 86.6088 371.893 85.6167C368.928 85.2378 364.572 85.4135 361.548 86.0052C358.523 86.5969 356.946 87.7803 356.133 89.7705C354.31 94.2331 356.898 98.9447 358.894 102.124C359.774 103.526 358.523 105.304 357.328 106.314C354.954 108.32 343.068 108.125 327.929 106.744C317.238 105.769 319.866 91.8205 316.884 85.4374C315.252 81.9439 313.483 78.2654 314.272 74.4822C315.648 67.8838 325.807 67.4835 329.991 64.525C332.671 62.6297 331.413 55.6497 330.821 52.0099C330.23 48.3701 329.046 47.1867 327.253 46.1826C319.702 41.9537 295.768 39.9908 281.621 43.7561C278.52 44.5816 280.014 51.9083 280.605 57.879C281.435 66.2549 292.732 70.2567 299.516 72.0556C306.998 74.0401 302.725 88.9517 303.914 98.1319C304.81 105.049 307.889 112.858 309.891 121.046C312.316 130.962 311.881 144.75 313.477 151.133C314.678 161.066 315.862 172.661 317.852 175.243C318.659 176.641 319.053 178.219 319.46 182.236" stroke="#4D4C48" stroke-width="2" stroke-linecap="round"/>
<path d="M330.218 194.189C318.694 194.189 309.921 191.822 280.133 190.208C268.639 189.586 261.725 186.228 254.935 184.238C247.877 182.169 247.739 172.314 244.566 166.517C241.383 160.703 240.567 153.189 238.386 146.399C237.862 144.77 237.388 143.22 237.973 142.012C240.757 136.275 246.926 132.462 249.723 124.304C250.826 121.086 250.13 115.799 249.341 112.763C248.552 109.726 246.974 108.938 245.175 107.939C231.158 100.163 206.333 106.117 201.336 110.695C196.008 115.577 195.957 125.218 195.933 131.81C195.905 139.587 209.058 139.992 215.244 142.377C222.995 145.365 221.035 156.703 222.631 163.086C223.426 166.266 224.227 169.469 225.219 172.649C225.817 174.251 226.606 175.829 228.614 181.04" stroke="#4D4C48" stroke-width="2" stroke-linecap="round"/>
<path d="M939.84 329.262C936.672 328.867 927.934 326.489 910.823 325.281C902.789 324.715 890.915 323.285 878.166 324.074C869.603 324.604 865.753 334.019 861.563 339.799C856.066 347.381 846.245 352.738 840.448 359.121C839.018 360.695 837.471 362.301 836.856 363.903C834.304 370.542 844.201 375.868 845.599 378.45C847.043 381.115 843.029 384.63 840.448 387.415C835.715 392.52 827.908 392.997 816.768 392.232C802.129 391.227 803.189 373.92 802.179 366.544C801.713 363.142 801.181 359.169 803.745 355.583C812.139 343.843 823.462 346.427 828.656 340.241C833.443 335.251 839.001 330.481 847.171 322.717C848.982 320.907 850.166 319.723 851.385 318.504" stroke="#4D4C48" stroke-width="2" stroke-linecap="round"/>
<path d="M837.04 318.505C832.307 318.505 818.429 318.505 797.349 318.11C780.176 317.789 754.347 316.114 726.065 315.917C714.336 315.835 711.147 314.919 707.771 315.708C697.989 317.993 689.679 331.606 683.457 338.801C676.18 347.218 666.537 355.13 659.754 364.489C657.338 367.822 656.556 371.482 654.763 376.042C649.867 388.496 658.529 395.771 661.511 402.549C665.216 410.968 668.474 419.654 672.867 429.438C676.715 438.009 680.427 447.959 682.041 454.946C683.816 462.633 686.822 467.109 688.209 469.894C688.905 471.293 690.779 471.89 692.578 472.099C700.037 472.967 706.318 468.328 719.449 468.513C722.337 468.554 723.459 470.288 724.266 472.081C727.721 479.758 727.069 497.661 722.509 509.537C719.779 516.646 711.554 520.492 705.577 522.704C698.828 525.201 685.316 524.102 672.173 522.919C660.88 521.902 660.537 508.993 659.138 501.421C658.773 499.442 658.935 497.446 659.724 496.036C662.911 490.337 670.076 491.828 672.466 489.067C677.915 482.774 672.096 473.516 669.908 470.336C665.949 464.581 660.943 459.985 656.76 453.601C652.893 447.703 652.169 440.859 649.779 434.476C647.472 428.316 644.209 421.734 643.001 415.351C641.735 408.653 637.443 403.397 633.648 397.618C631.79 394.789 629.064 392.233 626.482 389.842C625.295 388.743 623.505 389.029 621.904 389.621C615.126 392.125 612.341 400.552 607.751 407.133C603.204 413.652 599.192 419.678 593.413 424.872C588.261 429.501 585.637 436.413 580.461 441.803C575.593 446.874 572.488 453.147 568.107 459.53C563.769 465.852 559.34 471.077 553.967 474.287C551.17 475.957 549.37 479.062 548.767 482.044C547.306 489.26 559.698 496.562 561.909 506.525C562.686 510.026 562.113 515.233 560.929 518.664C557.473 528.684 547.004 528.477 538.045 530.073C532.709 531.023 525.105 531.274 516.947 530.683C507.4 529.99 501.987 518.58 495.987 508.001C492.294 501.49 493.978 493.059 494.767 487.483C495.685 481 505.502 481.07 512.877 478.692C520.259 476.311 527.424 473.922 532.211 468.938C537.413 463.522 540.19 457.594 544.559 448.438C549.956 437.126 555.706 432.085 559.907 425.314C563.718 419.172 569.261 414.155 575.04 408.179C580.673 402.354 584.8 396.225 588.793 390.643C592.851 384.969 601.129 384.654 605.928 379.491C610.426 374.651 612.699 366.366 617.08 359.367C621.341 352.56 628.239 346.428 632.817 341.234C638.408 334.891 649.325 329.31 656.126 323.107C661.725 317.999 665.294 310.568 670.865 304.185C676.853 297.801 680.439 293.415 683.021 291.227C684.42 290.223 685.998 289.434 688.819 286.231" stroke="#4D4C48" stroke-width="2" stroke-linecap="round"/>
<path d="M667.303 287.425C653.09 287.425 622.717 286.636 612.951 286.032C590.594 284.65 552.981 284.245 541.846 282.853C520.709 280.209 502.011 275.495 493.011 273.881C477.858 271.165 455.74 273.463 453.75 277.037C448.846 285.843 443.416 297.728 437.027 305.922C428.957 316.273 420.298 320.464 414.907 325.46C409.266 330.688 403.157 336.41 390.235 346.355C382.049 352.655 378.055 359.91 372.078 366.096C369.23 369.044 366.09 371.086 364.297 373.865C363.37 375.301 363.687 377.433 364.279 379.238C366.579 386.254 373.238 387.821 375.228 390.403C377.187 392.945 376.836 401.316 376.244 411.471C375.737 420.179 364.524 422.88 357.537 425.079C349.941 427.471 331.963 429.67 318.097 422.737C310.672 419.024 310.698 410.162 309.705 406.588C308.481 402.176 307.506 393.08 311.845 382.92C317.135 370.534 335.381 377.493 338.561 373.519C344.305 366.338 346.928 360.364 352.505 351.811C360.131 340.114 372.006 337.246 382.179 327.905C389.061 321.584 394.742 315.348 399.332 308.965C401.125 305.785 402.727 302.581 404.711 299.796C405.906 298.589 407.484 297.8 410.305 293.401" stroke="#4D4C48" stroke-width="2" stroke-linecap="round"/>
<path d="M422.293 276.068C410.64 276.068 383.274 276.068 349.934 275.825C325.73 275.649 305.118 277.51 293.841 286.33C282.788 294.975 273.75 311.32 255.124 330.19C245.142 340.301 238.439 352.016 234.216 361.374C230.126 370.438 240.823 385.856 249.135 401.562C254.398 411.506 258.449 419.725 264.599 430.024C269.562 438.336 275.648 443.281 277.598 447.202C282.304 456.668 301.587 446.768 314.351 445.753C317.345 445.514 319.743 447.209 321.236 449.652C331.016 465.646 321.773 489.847 315.896 498.447C309.309 508.084 290.494 509.004 277.892 512.689C267.898 515.612 255.609 517.361 245.317 516.147C241.185 515.659 239.881 512.505 238.888 510.284C237.085 506.25 236.909 498.293 238.608 488.737C239.882 481.576 249.15 481.564 252.335 479.857C261.169 475.124 244.295 454.154 239.131 446.275C233.88 438.264 232.024 425.228 226.875 415.871C222.469 407.866 215.369 400.187 207.755 395.015C200.856 390.329 199.155 383.002 196.713 379.816C194.385 376.78 188.385 377.587 183 378.073C173.81 378.902 162.932 389.799 153.317 394.25C135.577 402.462 106.522 423.639 96.6793 429.068C86.6168 434.618 75.1247 436.91 66.5103 441.567C61.9139 444.051 61.8242 461.804 57.2117 482.403C55.3793 490.586 43.3741 489.406 37.6508 488.678C25.1087 487.082 16.7436 482.079 8.88689 474.237C0.471992 465.838 1.03011 456.096 1.00066 439.934C0.99408 436.321 3.91384 434.997 5.88539 433.762C22.6374 423.26 57.8517 428.612 65.2303 423.22C74.6749 416.318 84.8353 409.014 93.9132 403.35C101.839 398.404 114.732 392.359 126.995 385.216C145.535 374.417 153.486 369.76 160.622 361.926C164.286 358.49 167.743 355.533 170.436 352.355C171.671 350.633 172.643 348.691 176.586 346.69" stroke="#4D4C48" stroke-width="2" stroke-linecap="round"/>
<path d="M198.654 333.449C197.683 333.449 194.756 334.42 168.743 335.891C145.19 337.223 100.489 336.391 76.9928 337.362C53.4961 338.333 52.525 340.275 51.5392 342.247C49.5824 346.161 45.6688 350.104 39.7983 353.289C34.4194 356.208 28.0132 355.518 22.6282 354.304C11.8945 351.885 14.742 335.95 13.5208 323.701C13.0349 318.827 13.2707 311.526 14.9701 306.803C16.6695 302.081 20.0682 300.138 25.946 299.138C50.1756 295.014 61.2646 304.964 79.8912 307.694C91.2214 309.354 99.5625 311.865 116.107 312.6C184.356 315.635 192.24 306.494 201.318 302.809C205.34 301.176 210.396 301.08 215.538 300.352C224.53 299.078 229.522 285.926 235.415 275.369C239.776 267.557 246.678 261.384 252.828 254.028C258.812 246.87 260.434 238.815 261.913 235.144C266.279 224.306 232.524 230.943 207.96 231.679C186.319 232.327 146.011 231.929 124.766 232.9C103.52 233.871 102.549 235.813 102.049 238.756C99.8944 251.429 96.664 259.354 91.029 265.504C88.1396 268.657 83.4223 269.683 77.3238 271.154C67.1359 273.612 58.4103 270.198 54.9821 267.02C48.0391 260.583 44.1975 251.085 41.4756 239.837C38.6114 228.001 42.6821 218.702 45.6173 215.767C51.5298 209.854 58.8517 205.475 70.3499 201.532C86.3896 196.032 95.1339 205.416 103.233 209.602C107.499 211.807 112.804 212.302 132.262 213.773C180.852 214.274 215.31 213.788 223.107 213.052C228.963 212.802 238.674 212.802 248.679 212.802" stroke="#4D4C48" stroke-width="2" stroke-linecap="round"/>
<path d="M590.989 72.9799C589.395 73.7729 585.141 79.6125 583.648 89.6335C583.348 91.6422 583.251 92.7175 583.247 93.7908C583.243 94.8642 583.507 95.9216 584.569 96.4663C585.63 97.011 587.481 97.011 588.83 96.6145C591.182 95.9237 593.112 92.7575 595.114 89.293C595.991 87.7763 595.795 86.3572 595.134 85.0155C594.474 83.6737 593.152 82.352 590.753 81.6711C588.354 80.9903 584.917 80.9903 582.618 81.6511C578.872 82.7281 577.115 85.7885 575.249 88.0474C572.814 90.9941 573.366 95.1286 574.027 98.0564C574.904 101.943 578.429 103.948 580.824 104.617C582.119 104.979 583.748 104.493 585.358 103.563C588.88 101.531 590.717 97.2994 591.518 93.4344C591.877 91.6999 591.79 90.3624 590.468 89.1528C587.099 86.0693 581.665 85.7965 578.064 86.3252C570.447 87.4437 570.162 101.265 570.823 104.597C571.45 107.757 575.489 108.754 578.02 109.555C579.202 109.929 580.287 109.828 581.493 109.167C586.961 106.169 589.099 100.504 592.447 94.8963C594.946 90.712 594.722 86.0849 594.73 77.1533C594.732 75.1095 593.937 74.0693 593.004 73.5246C587.782 70.4768 576.891 81.2146 571.243 87.3785C569.23 89.5762 569.89 93.2541 571.219 96.8508C571.886 98.6528 573.078 100.183 574.548 101.265C577.52 103.451 582.154 103.419 586.816 102.626C589.198 102.221 591.213 100.247 592.699 98.5049C595.46 95.2679 595.795 89.0407 595.002 82.9007C594.566 79.5215 586.495 80.1892 579.026 81.1144C575.933 81.4975 574.728 83.89 574.311 85.7685C573.895 87.6469 574.424 89.4973 575.357 90.847C577.126 93.4057 580.295 94.0712 583.091 94.4717C588.797 95.2893 593.633 91.4198 598.05 87.5468C601.929 84.1465 602.204 77.8101 601.939 73.6768C601.826 71.9063 601.146 70.8652 598.098 70.3205C582.96 67.6151 577.932 72.1628 573.114 75.5032C569.473 78.027 569.361 84.1624 570.022 89.3651C570.887 96.1795 581.889 96.1939 588.161 96.7467C590.811 96.9802 593.641 94.3516 596.576 92.2208C600.451 89.4085 600.858 83.1531 600.874 75.0106C600.884 69.7937 591.021 66.3313 584.869 65.1017C579.541 64.0368 574.728 76.6647 571.239 82.7085C569.914 85.0057 570.426 87.6549 571.091 89.7857C572.464 94.1856 577.083 98.0523 584.685 103.003C589.259 105.982 593.112 105.822 595.511 105.029C602.082 102.857 599.8 90.3784 598.206 84.3466C597.566 81.9249 595.539 79.6686 592.88 77.666C591.489 76.6188 589.163 76.9851 587.412 77.5138C581.264 79.371 579.518 85.5081 577.776 91.9124C577.351 93.4758 577.9 94.8482 579.226 96.4543C582.451 100.362 587.232 102.346 590.961 103.147C592.817 103.546 594.69 103.419 596.172 102.494C602.055 98.8213 602.188 90.9071 602.608 83.8179C602.774 81.0187 599.544 79.1319 597.413 77.3976C596.429 76.5966 595.283 76.4564 594.606 77.1132C592.86 78.8072 593.392 83.6337 594.053 87.5067C594.288 88.8827 596.036 88.4719 597.113 87.8071C602.013 84.7831 604.863 78.8755 607.266 74.598C610.431 68.9645 615.004 64.1845 619.806 59.915C625.601 54.763 629.423 49.5095 633.428 44.6953C637.706 38.5513 640.645 34.5381 642.376 32.8079C643.313 31.8707 644.37 30.8133 647.062 28.9229" stroke="#4D4C48" stroke-width="2" stroke-linecap="round"/>
<path d="M654.27 19.3109C654.799 19.3109 657.451 17.9892 661.32 15.0614C663.066 13.7394 663.338 11.6049 662.817 10.3873C662.297 9.16975 660.711 8.64107 658.44 9.02957C648.471 10.735 646.268 16.3631 645.066 18.7582C644.439 20.0084 644.658 21.682 645.715 23.292C648.187 27.056 652.124 28.1223 654.254 27.9901C656.417 27.8559 658.796 26.7926 661.195 25.4628C665.688 22.9727 666.542 17.1961 666.426 12.6543C666.388 11.1627 664.444 9.73048 662.573 8.91342C658.608 7.18116 654.551 8.88939 652.152 10.4875C648.188 13.1275 648.663 19.5512 649.192 23.8207C649.402 25.5177 650.778 25.9755 651.983 26.2479C654.463 26.808 657.194 25.7272 659.593 23.7326C660.834 22.7009 661.464 20.945 661.211 19.4671C660.959 17.9892 659.637 16.6675 657.767 16.1188C655.896 15.57 653.517 15.8344 651.763 16.8958C650.009 17.9571 648.951 19.8075 648.803 21.4216C648.655 23.0357 649.448 24.3574 650.782 25.3026C653.645 27.3314 659.045 27.3213 665.04 26.3961C667.977 25.9429 670.243 23.6205 671.601 21.8742C673.876 18.9484 673.495 15.8504 672.702 13.8518C671.616 11.1153 667.367 11.3005 664.836 11.4327C663.621 11.4961 662.569 11.8292 661.496 12.7584C660.422 13.6876 659.365 15.2737 658.82 16.7516C658.276 18.2295 658.276 19.5512 658.936 20.7608C659.597 21.9703 660.919 23.0277 662.393 23.5724C663.867 24.1171 665.453 24.1171 667.063 23.5884C668.673 23.0597 670.259 22.0024 671.076 20.2681C671.893 18.5339 671.893 16.1548 671.365 14.5327C670.836 12.9106 669.778 12.1176 668.441 11.709C667.103 11.3005 665.517 11.3005 664.303 12.2257C661.58 14.3022 661.48 19.5512 662.008 24.2172C662.244 26.2945 663.594 27.5616 664.932 28.3746C667.595 29.993 672.133 29.7244 676.667 29.1957C679.992 28.808 681.498 25.4629 682.699 23.3321C683.263 22.3317 683.108 21.2013 682.711 20.2601C681.895 18.3221 678.326 16.1228 673.135 13.7196C667.654 11.1824 662.825 13.6956 660.43 15.6902C659.049 16.8409 657.507 18.4778 656.689 20.3522C655.872 22.2267 655.872 24.3414 656.665 26.2238C657.458 28.1063 659.045 29.6923 660.39 30.5094C661.736 31.3264 662.793 31.3264 664.66 30.2691C669.457 27.5513 672.686 23.8608 673.888 21.0692C675.522 17.2724 672.71 12.3899 669.911 8.78926C668.733 7.2747 667.904 6.51031 666.57 6.10178C665.237 5.69326 663.386 5.69326 661.64 6.22194C659.894 6.75062 658.308 7.80799 657.491 9.14572C655.908 11.7365 656.938 15.0253 658.131 17.6888C659.629 21.0319 663.867 22.2427 667.195 22.9115C670.719 23.6198 674.016 21.4577 676.019 19.1947C676.936 18.1579 676.699 16.6675 676.303 15.1936C674.599 8.86011 668.168 7.56768 665.505 7.03099C659.956 5.91282 654.302 11.5568 648.815 16.351C645.702 19.0707 645.459 25.1504 646.12 30.7537C646.385 33.0034 648.102 33.7135 650.237 34.1221C652.372 34.5306 655.28 34.5306 657.438 34.0019C659.597 33.4732 660.919 32.4159 661.864 31.0781C662.809 29.7404 663.338 28.1543 663.214 26.9408C663.09 25.7272 662.297 24.9342 661.227 24.5256C660.158 24.1171 658.836 24.1171 657.474 24.1171" stroke="#4D4C48" stroke-width="2" stroke-linecap="round"/>
<path d="M737.579 54.5564C735.464 55.3495 733.349 56.1425 732.26 57.8727C731.17 59.603 731.17 62.2464 732.095 63.8725C733.021 65.4986 734.871 66.0273 736.353 66.2996C737.835 66.572 738.892 66.572 740.098 66.0433C741.303 65.5146 742.625 64.4572 743.438 63.3839C744.251 62.3105 744.516 61.2531 744.52 59.9154C744.524 58.5776 744.259 56.9916 743.33 55.3815C742.401 53.7714 740.815 52.1854 739.205 51.5005C737.595 50.8156 736.009 51.0799 734.531 51.877C731.44 53.5435 729.576 56.6792 728.375 59.607C727.745 61.1401 727.966 63.0634 728.627 64.5454C729.939 67.4876 733.822 70.0245 737.286 73.0924C739.843 75.3571 743.963 75.3834 748.228 74.8547C751.78 74.4145 753.591 70.8575 754.925 68.1941C756.171 65.7061 755.209 62.0541 753.083 57.9248C750.79 53.4729 746.67 51.3603 744.139 50.1587C742.986 49.6113 741.872 49.7502 740.534 50.6754C737.219 52.9686 735.183 57.2079 733.982 60.8045C732.918 63.9888 735.159 67.8857 738.091 71.222C739.956 73.3444 743.17 72.9803 746.102 72.4516C747.525 72.195 748.505 70.8656 749.049 69.7922C751.951 64.0735 743.747 54.8448 733.081 43.7825C730.877 41.4966 729.328 41.7398 727.986 42.2685C725.102 43.4049 722.11 47.8518 719.307 53.0505C718.129 55.2345 718.354 56.9275 719.279 58.2732C723.756 64.7861 732.997 66.2996 739.693 66.4398C742.128 66.4908 744.243 64.7136 745.977 62.5828C746.779 61.5986 746.919 60.4521 746.923 59.2465C746.927 58.0409 746.662 56.7192 745.865 55.6418C744.184 53.3698 740.799 52.4257 737.867 51.6246C735.534 50.9872 732.788 51.881 729.857 53.3429C728.391 54.0736 727.453 55.5978 726.909 57.2038C725.785 60.5176 726.628 64.1529 728.483 67.8777C731.409 73.7546 738.091 75.3834 741.956 75.1191C745.122 74.9026 747.976 71.4023 750.511 67.1367C752.264 64.1882 751.997 61.2451 751.469 58.846C750.328 53.6689 743.747 50.0386 738.267 48.2843C736.858 47.8329 735.207 48.1481 733.597 48.6768C730.207 49.7899 727.445 54.7887 725.443 60.9207C724.58 63.5635 724.762 65.4666 725.819 67.2128C728.202 71.1483 734.342 73.2366 740.074 74.8387C744.353 76.0348 748.505 74.5904 752.238 72.9923C755.102 71.7658 756.795 69.2555 757.997 66.592C760.909 60.1371 745.925 46.3538 737.07 40.5463C735.678 39.6332 734.134 40.1378 731.999 41.4595C720.602 48.5162 719.427 58.8099 719.419 62.6709C724.746 69.5038 729.288 71.3702 732.876 72.5717C735.143 72.9803 738.315 72.9803 741.584 72.9803" stroke="#4D4C48" stroke-width="2" stroke-linecap="round"/>
<path d="M669.49 22.5144C670.011 22.5144 676.924 25.1578 687.61 29.9761C695.079 33.3441 706.033 37.4457 712.322 39.5965C719.411 42.0036 723.672 43.5977 728.483 46.5335C729.56 47.3385 730.353 48.1316 731.17 48.9486" stroke="#4D4C48" stroke-width="2" stroke-linecap="round"/>
<path d="M820.086 127.451C819.558 127.451 817.171 129.566 814.627 133.034C813.788 134.179 815.52 134.917 816.73 135.189C817.939 135.461 818.997 135.461 820.07 134.404C822.793 131.722 823.29 127.203 822.762 124.002C822.525 122.572 821.176 121.86 819.97 121.451C818.765 121.043 817.443 121.043 816.233 121.703C813.59 123.147 812.613 126.105 812.212 128.897C811.628 132.971 812.869 136.783 814.599 139.182C816.199 141.4 818.74 142.927 821.268 144.397C822.588 145.164 824.588 144.545 826.07 143.748C828.983 142.182 830.492 138.417 831.693 134.688C832.844 131.118 831.573 127.467 830.376 124.667C829.831 123.393 828.914 122.661 827.712 122.252C822.486 120.475 818.236 121.043 814.904 122.1C811.031 123.329 811.275 131.152 811.539 137.288C811.645 139.735 812.332 140.78 813.398 141.457C815.772 142.966 819.798 142.142 823.531 140.812C830.135 138.46 829.699 128.805 829.17 125.605C828.735 122.974 825.173 122.116 821.056 121.315C814.154 119.972 808.351 122.1 805.82 124.759C802.818 127.913 802.463 133.298 803.521 137.832C804.013 139.942 806.693 140.78 808.972 141.325C811.251 141.87 813.63 141.87 815.649 141.077C824 137.796 825.678 127.211 825.834 119.869C825.874 117.999 823.851 116.797 821.981 116.116C820.11 115.435 817.731 115.435 815.845 116.096C812.286 117.343 810.482 120.762 809.28 123.69C808.651 125.223 808.872 127.147 809.4 128.761C810.439 131.932 814.191 134.644 818.056 137.047C819.696 138.067 821.128 137.864 822.602 136.543C829.449 130.403 828.097 123.742 827.568 119.072C826.868 112.889 815.568 113.833 811.968 114.23C810.439 114.398 809.689 115.419 809.016 117.15C807.372 121.377 807.27 127.155 807.666 132.221C808.167 138.616 813.934 140.259 816.594 141.065C818.127 141.529 820.311 140.284 821.664 138.685C824.508 135.328 824.091 131.2 823.695 129.201C823.496 128.199 822.505 127.467 820.511 127.058C818.516 126.65 815.344 126.65 813.049 127.972C810.754 129.293 809.432 131.937 808.752 134.488C808.071 137.039 808.071 139.418 808.996 141.305C809.921 143.191 811.771 144.513 813.518 145.194C815.264 145.875 816.85 145.875 818.46 144.95C822.131 142.841 823.555 138.153 823.955 133.759C824.378 129.118 823.827 125.064 822.501 121.736C820.79 117.439 816.361 115.443 813.434 114.242C811.9 113.613 809.977 113.833 808.627 114.23C807.278 114.626 806.485 115.419 805.812 116.357C804.454 118.248 804.065 122.348 805.123 128.208C806.306 134.765 812.324 138.385 815.921 140.52C818.932 142.307 821.945 141.87 824.208 141.341C825.413 140.812 826.735 139.755 827.416 138.681C828.097 137.608 828.097 136.551 828.097 135.461" stroke="#4D4C48" stroke-width="2" stroke-linecap="round"/>
<path d="M747.992 66.5715C756.755 71.0734 774.875 82.8166 783.61 89.1087C795.229 98.3326 805.61 106.039 814.682 114.442C818.203 117.822 819.524 119.408 821.687 121.042" stroke="#4D4C48" stroke-width="2" stroke-linecap="round"/>
<path d="M589.387 95.4091C618.961 92.205 635.543 92.7337 645.279 95.5293C662.011 100.333 680.321 105.775 692.677 110.485C712.344 117.982 726.861 118.351 740.198 120.77C753.528 122.364 772.777 125.048 784.236 125.712C790.6 125.849 801.966 125.849 813.678 125.849" stroke="#4D4C48" stroke-width="2" stroke-linecap="round"/>
<path d="M584.581 92.2053C611.792 82.0642 619.266 78.8761 641.767 74.8629C649.878 73.4162 656.626 71.6507 663.455 68.4546C673.735 63.6435 685.175 62.8553 694.163 60.7045C701.856 58.8635 709.511 55.63 719.652 55.2254C726.341 54.0279 732.228 52.4258 734.624 51.6248C735.961 51.3524 737.547 51.3524 739.182 51.3524" stroke="#4D4C48" stroke-width="2" stroke-linecap="round"/>
<path d="M823.289 191.534C821.438 191.799 819.588 192.063 818.502 192.86C817.417 193.657 817.153 194.979 817.017 196.188C816.88 197.398 816.88 198.455 817.673 199.529C819.571 202.098 823.801 203.278 827.666 204.079C829.401 204.438 830.738 204.351 831.948 203.426C833.157 202.501 834.215 200.65 834.495 199.168C834.776 197.686 834.247 196.629 833.446 195.82C832.645 195.011 831.587 194.482 829.985 194.21C828.383 193.938 826.269 193.938 824.254 194.995C819.827 197.319 817.954 201.403 817.021 203.93C816.492 205.361 816.352 207.251 816.612 208.865C816.872 210.479 817.665 211.801 818.999 212.614C821.869 214.363 825.676 213.699 828.872 212.373C830.653 211.635 832.068 209.462 832.885 207.848C833.702 206.233 833.702 204.912 833.173 203.57C832.037 200.686 829.176 198.752 825.852 197.55C823.93 196.855 821.206 197.142 819.448 197.538C817.689 197.935 816.896 198.728 816.62 199.797C816.344 200.866 816.608 202.188 817.537 203.53C819.623 206.542 823.008 208.348 825.936 209.682C829.166 211.153 833.149 210.759 836.878 209.438C842.009 207.619 842.514 201.427 842.249 198.896C842.121 197.665 841.456 196.629 840.523 195.82C838.542 194.102 835.849 193.673 833.718 193.273C829.497 192.479 825.179 197.382 821.566 201.399C820.616 202.456 819.572 203.79 820.613 206.189C823.479 212.792 830.21 216.359 834.075 217.692C835.806 218.29 837.147 218.497 838.356 218.105C839.566 217.712 840.623 216.655 841.168 214.921C841.713 213.186 841.713 210.807 840.787 208.657C838.863 204.183 835.048 202.485 832.521 202.084C829.239 201.564 826.237 202.477 823.709 204.203C822.144 205.272 820.389 207.251 819.436 208.733C818.482 210.215 818.482 211.272 819.143 211.949C820.676 213.519 824.602 213.162 828.071 212.502C830.756 211.99 831.291 208.364 832.493 206.502C833.113 205.54 832.901 204.111 832.505 202.901C832.108 201.692 831.315 200.634 830.114 199.957C827.55 198.513 824.634 198.744 822.371 199.14C821.121 199.359 819.844 200.33 819.031 201.267C818.218 202.204 817.954 203.262 818.082 204.599C818.21 205.937 818.739 207.523 819.804 208.472C820.87 209.422 822.456 209.686 824.198 209.293C825.94 208.901 827.79 207.844 829.14 206.506C830.49 205.168 831.283 203.582 831.427 202.236C831.686 199.816 829.441 197.422 827.31 195.155C826.33 194.113 825.179 193.681 823.841 193.541C822.504 193.401 820.918 193.665 819.704 194.33C817.385 195.601 816.352 198.199 815.551 200.462C815.138 201.627 815.278 202.989 815.939 203.802C817.362 205.553 820.605 205.152 822.872 204.491C823.979 204.168 824.346 202.509 824.222 201.035C824.098 199.561 823.305 197.975 822.235 197.026C820.23 195.245 816.632 195.54 813.432 195.936C812.036 196.109 811.289 197.126 810.881 198.988C810.472 200.85 810.472 203.758 811.001 205.785C811.529 207.811 812.587 208.869 814.057 209.414C815.527 209.958 817.377 209.958 818.859 209.033C822.05 207.041 822.752 203.294 822.888 201.031C822.961 199.821 822.231 198.503 820.902 197.69C817.823 195.808 813.692 196.341 810.893 197.002C809.548 197.319 808.886 198.984 808.61 200.326C808.333 201.668 808.598 202.989 809.395 204.067C811.076 206.339 816.576 206.754 823.505 205.565C826.896 204.982 829.377 201.996 830.87 199.845C832.364 197.694 832.629 195.844 832.368 194.098C832.108 192.351 831.315 190.765 830.378 189.684C829.441 188.603 828.383 188.074 826.649 187.802C824.915 187.529 822.536 187.529 820.385 188.454C811.938 192.088 809.687 198.728 808.337 203.398C808.001 204.56 808.598 205.665 809.791 206.87C817.155 214.308 829.417 210.231 831.816 209.033C832.95 208.467 833.686 207.571 834.095 206.37C834.503 205.168 834.503 203.582 833.975 202.765C832.389 201.948 829.449 202.212 825.455 203.538C823.313 204.599 820.934 206.45 816.88 210.759" stroke="#4D4C48" stroke-width="2" stroke-linecap="round"/>
<path d="M820.886 129.053C822.752 142.062 825.404 162.376 826.757 173.995C827.022 177.604 827.55 182.098 827.823 185.602C828.095 189.107 828.095 191.486 828.095 193.937" stroke="#4D4C48" stroke-width="2" stroke-linecap="round"/>
<path d="M654.269 20.9124C660.109 27.0082 669.201 37.7181 676.931 44.9114C686.232 53.5672 692.96 59.0737 698.699 64.8092C709.285 75.3877 721.749 84.6749 735.238 96.4141C751.307 110.398 763.195 120.497 765.994 122.628C771.482 126.805 776.011 133.57 780.813 137.583C785.145 141.203 787.242 144.785 791.624 148.926C798.771 155.681 803.231 161.334 807.784 166.945C813.404 173.63 817.649 179.486 822.455 184.821C824.09 186.983 824.09 188.041 824.891 190.732" stroke="#4D4C48" stroke-width="2" stroke-linecap="round"/>
<path d="M820.887 364.158C819.83 364.687 818.756 369.982 818.616 377.591C818.568 380.207 820.326 380.179 821.139 379.518C822.89 378.095 822.225 374.323 821.295 371.387C820.911 370.174 819.573 370.038 818.5 370.034C817.427 370.03 816.369 370.294 816.089 372.281C815.808 374.267 816.337 377.968 817.402 380.139C818.468 382.31 820.054 382.838 821.4 382.846C822.745 382.854 823.803 382.326 824.612 381.26C826.408 378.895 826.494 375.389 826.098 372.589C825.771 370.279 822.505 369.237 819.177 368.303C817.455 367.821 815.584 367.635 814.499 369.084C811.613 372.939 813.405 378.825 814.735 382.025C815.337 383.475 816.593 384.168 817.931 384.709C819.269 385.249 820.855 385.514 822.597 385.121C824.339 384.729 826.19 383.671 827.275 382.598C828.361 381.525 828.625 380.467 828.761 378.733C829.083 374.63 824.932 367.939 818.396 361.531C815.989 359.171 814.767 359.352 813.429 360.938C809.829 365.207 808.607 370.022 808.207 372.152C808.007 373.216 808.07 374.283 808.731 374.96C810.264 376.53 814.719 376.174 818.988 375.513C820.723 375.244 821.143 373.53 821.416 371.528C821.688 369.525 821.688 366.882 821.159 365.652C820.631 364.422 819.573 364.687 818.764 365.352C814.306 369.015 817.41 378.288 818.344 382.566C818.964 385.409 823.01 386.315 826.202 387.116C828.035 387.576 830.451 387.388 832.074 386.727C833.696 386.066 834.489 384.745 834.897 382.742C835.306 380.739 835.306 378.096 834.513 375.941C832.981 371.781 829.442 370.038 825.99 368.708C820.043 366.417 813.966 365.76 810.63 366.95C809.024 367.522 809.144 370.518 809.404 372.273C809.664 374.027 810.457 375.084 811.527 375.761C812.596 376.438 813.918 376.702 816.081 376.975" stroke="#4D4C48" stroke-width="2" stroke-linecap="round"/>
<path d="M700.731 491.521C699.674 491.521 698.616 491.521 699.129 493.9C699.642 496.279 701.756 501.038 704.035 501.771C706.314 502.504 708.693 499.067 710.183 496.768C711.673 494.469 712.202 493.412 711.417 491.81C710.632 490.208 708.517 488.093 705.842 487.268C703.166 486.443 699.994 486.971 697.567 487.905C686.74 492.068 683.917 508.583 683.641 512.589C683.541 514.042 686.008 513.95 688.812 511.968C696.008 506.879 699.658 500.877 700.459 498.747C700.848 497.71 700.731 496.616 700.335 495.542C699.489 493.253 697.271 491.794 695.14 490.993C693.129 490.237 689.805 491.249 686.336 492.579C680.997 494.626 680.441 501.919 680.305 504.983C680.239 506.465 680.961 507.782 682.952 508.86C688 511.592 694.299 511.019 698.961 509.16C704.15 507.092 706.33 502.215 707.532 499.155C708.184 497.493 707.94 495.302 707.147 493.948C705.614 491.331 699.433 491.521 692.637 491.918C682.486 492.51 678.318 501.903 675.506 506.324C674.825 507.395 675.098 509.112 675.362 510.458C675.627 511.804 676.155 512.861 677.881 513.802C679.608 514.743 682.515 515.536 685.864 515.02C693.213 513.886 697.783 508.896 699.517 505.563C700.27 504.118 700.459 503.024 700.331 501.819C700.202 500.613 699.674 499.291 696.89 498.61C694.106 497.93 689.084 497.93 685.571 498.987C682.059 500.044 680.208 502.159 679.123 504.174C678.038 506.188 677.773 508.039 679.487 509.124C684.203 512.11 692.416 509.424 698.949 506.893C703.799 505.014 707.916 501.158 712.314 495.571C717.279 489.262 717.553 482.462 717.156 479.261C716.983 477.865 715.967 477.119 714.765 476.71C709.315 474.857 699.994 484.52 694.335 490.572C690.782 494.371 688.451 498.186 688.051 500.317C687.851 501.38 687.914 502.447 690.822 503.785C693.73 505.123 699.545 506.709 703.863 506.204C708.181 505.7 710.824 503.056 712.45 500.769C714.076 498.482 714.605 496.632 714.877 495.15C715.15 493.668 715.15 492.611 714.092 490.876C713.035 489.142 710.92 486.763 708.906 485.67C697.602 479.535 683.917 503.521 682.716 507.642C681.997 510.108 682.307 513.614 682.968 515.516C683.629 517.419 684.951 517.683 686.953 517.687C691.606 517.696 699.61 515.304 708.413 511.707C714.055 509.402 716.207 504.891 717.809 500.369C718.72 497.799 718.354 494.261 717.164 492.094C714.933 488.03 710.087 488.317 707.692 488.449C698.376 491.762 685.015 498.186 680.052 501.386C679.111 502.455 678.318 503.777 676.7 507.542" stroke="#4D4C48" stroke-width="2" stroke-linecap="round"/>
<path d="M530.911 490.721C518.39 490.721 509.315 491.779 504.092 493.381C500.748 494.406 502.073 500.846 502.602 504.844C503.102 508.624 506.599 510.739 510.056 512.205C514.828 514.229 523.381 513.951 532.316 513.555C537.937 513.305 541.044 509.962 543.178 506.898C544.893 504.437 543.207 499.036 539.486 492.371C535.715 485.617 528.524 484.585 525.46 483.652C522.706 482.813 519.712 482.711 516.119 483.9C505.885 487.289 504.228 497.89 501.424 504.691C500.284 507.457 500.471 509.113 502.586 511.252C508.172 516.901 515.403 519.286 519.664 520.087C523.861 520.876 528.748 518.245 532.885 514.512C534.52 513.037 534.643 511.837 533.722 510.234C526.268 497.271 502.922 494.999 497.415 495.652C494.165 496.037 494.864 502.184 495.26 505.913C495.463 507.822 496.45 509.642 499.238 510.991C506.298 514.41 518.03 513.951 528.171 513.819C533.041 513.756 535.965 511.564 538.901 508.5C540.17 507.176 540.251 505.701 540.387 504.359C540.523 503.017 540.523 501.695 538.673 499.957C533.748 495.331 522.436 493.661 511.493 494.45C507.301 494.752 506.367 497.882 505.822 499.901C504.872 503.421 505.542 506.99 507.528 510.851C513.109 521.697 526.329 517.956 534.087 516.895C541.437 515.89 544.248 510.226 546.25 507.034C548.538 503.389 545.874 498.748 543.479 495.684C537.448 487.969 526.401 485.915 521.466 486.576C519.354 486.859 518.382 488.558 517.838 490.825C517.293 493.092 517.293 496.264 520.862 500.013C537.107 517.079 547.965 513.15 553.304 512.489C555.302 512.242 555.47 510.507 554.814 508.901C551.631 501.118 536.87 499.02 525.868 498.195C523.969 498.052 522.66 498.988 521.715 499.789C519.905 501.322 519.167 504.587 518.499 508.448C517.794 512.515 519.688 516.074 521.55 518.341C522.457 519.444 523.942 519.815 525.68 519.691C527.418 519.567 529.533 518.774 530.887 516.779C532.24 514.784 532.769 511.612 533.041 509.449C533.445 506.243 529.084 501.175 522.015 495.167C519.35 492.902 517.854 493.124 516.776 494.578C513.951 498.391 514.089 504.315 514.75 508.448C515.411 510.202 516.732 511.26 520.85 511.937C524.967 512.614 531.84 512.878 538.921 513.15" stroke="#4D4C48" stroke-width="2" stroke-linecap="round"/>
<path d="M526.105 510.747C534.035 510.218 541.557 509.417 553.636 508.088C575.968 505.629 591.245 504.611 594.83 503.81C601.172 502.393 614.924 501.687 635.158 498.884C657.507 497.93 671.077 497.402 678.238 496.601C683.813 496.328 693.33 496.328 703.134 496.328" stroke="#4D4C48" stroke-width="2" stroke-linecap="round"/>
<path d="M709.542 492.322C712.722 485.425 721.253 471.015 726.881 464.306C728.972 461.813 736.177 452.879 747.511 440.872C758.857 428.853 768.531 425.308 773.341 422.38C783.47 416.215 794.693 399.707 799.375 394.612C804.557 388.973 810.457 384.198 814.995 380.325C816.072 379.384 816.865 378.591 817.538 377.654C818.211 376.717 818.74 375.659 821.688 372.968" stroke="#4D4C48" stroke-width="2" stroke-linecap="round"/>
<path d="M588.585 91.8042C594.962 97.9081 604.574 107.008 617.211 118.691C624.45 125.384 635.35 138.28 642.131 145.342C648.912 152.403 650.762 153.724 663.611 168.019C676.459 182.313 700.25 209.541 713.167 224.624C726.084 239.708 727.405 241.822 735.752 250.71C744.099 259.597 759.431 275.194 768.122 284.418C778.752 295.699 786.378 305.345 797.577 318.005C811.758 334.037 813.934 343.298 816.737 348.785C819.323 353.845 821.672 360.392 824.748 364.277C825.421 365.214 825.949 366.272 826.222 367.609C826.494 368.947 826.494 370.533 827.295 373.769" stroke="#4D4C48" stroke-width="2" stroke-linecap="round"/>
<path d="M522.899 509.145C525.022 501.711 529.292 489.423 535.159 477.159C536.987 473.34 537.302 468.388 541.147 457.742C544.992 447.096 551.865 430.707 555.67 421.735C559.475 412.764 560.004 411.706 563.052 403.76C566.099 395.814 571.651 381.011 575.964 367.966C580.278 354.921 583.186 344.083 588.12 330.834C593.054 317.585 599.927 302.253 604.129 293.429C610.902 279.204 615.788 271.557 619.016 264.452C622.529 256.719 625.673 246.196 628.096 238.815C628.846 236.53 630.767 234.934 638.441 218.396C645.618 202.931 659.332 173.046 669.454 151.842C679.575 130.639 685.655 119.008 689.315 112.487C695.931 100.704 701.515 93.6948 707.647 85.8286C712.606 79.4672 717.264 75.5433 721.405 70.4687C722.871 68.342 724.986 64.9055 726.472 62.7387C727.957 60.5719 728.75 59.7789 731.17 56.5587" stroke="#4D4C48" stroke-width="2" stroke-linecap="round"/>
<path d="M571.764 170.306C566.741 174.007 561.718 177.708 560.982 180.407C560.245 183.107 563.945 184.693 566.777 185.51C569.609 186.327 571.459 186.327 572.412 185.798C573.366 185.269 573.366 184.212 572.573 182.874C570.65 179.632 567.238 178.052 564.574 177.652C557.617 176.605 551.217 186.839 549.214 190.837C548.318 192.626 548.533 194.305 549.194 195.519C550.543 197.996 554.389 198.607 558.382 198.875C560.52 199.019 562.904 198.615 565.055 197.421C569.594 194.902 571.756 190.348 572.296 185.962C572.64 183.172 570.722 179.198 569.513 176.891C568.303 174.584 567.246 174.055 565.644 173.782C561.97 173.158 558.426 174.303 556.027 176.43C553.264 178.88 552.811 183.635 552.803 187.368C552.784 196.183 574.119 190.076 581.62 187.14C584.11 186.166 585.373 183.667 586.046 181.404C587.562 176.305 577.931 175.128 573.249 175.104C571.806 175.097 570.722 177.483 570.041 178.961C569.36 180.439 569.36 181.761 570.286 182.706C571.211 183.651 573.061 184.18 574.94 184.188C576.818 184.196 578.668 183.667 579.754 182.734C580.839 181.801 581.104 180.479 580.447 179.137C576.5 171.076 564.586 168.448 556.307 168.832C552.971 168.987 549.887 172.156 546.819 175.489C544.732 177.756 544.528 180.968 545.189 184.432C545.516 186.146 547.172 187.368 548.513 188.049C549.855 188.73 551.177 188.73 552.519 188.333C560.019 186.117 560.549 173.526 560.02 171.123C559.811 170.173 558.434 170.306 556.964 170.835C553.502 172.08 550.68 175.096 548.946 178.292C548.113 179.827 548.005 181.488 548.001 182.966C547.997 184.444 548.261 185.766 550.115 187.372C554.893 191.51 561.326 192.735 565.988 192.074C575.43 190.736 578.164 183.131 578.308 181.797C578.617 178.935 572.044 181.248 569.645 182.71C568.428 183.452 567.774 184.965 568.159 186.571C568.543 188.177 570.129 190.028 571.872 190.981C575.132 192.765 578.428 191.405 580.559 190.208C581.661 189.588 582.69 188.746 583.234 187.412C583.779 186.078 583.779 184.228 582.457 182.878C581.136 181.529 578.492 180.736 576.47 180.327C568.692 178.756 561.366 190.044 559.48 193.392C559.063 194.131 561.847 194.593 563.329 194.469C566.019 194.244 568.279 191.149 570.282 187.424C571.344 185.447 570.962 182.642 570.169 180.355C569.376 178.068 567.79 176.218 565.519 175C560.703 172.418 556.287 172.709 554.025 173.106C552.774 173.325 551.497 174.295 550.552 175.365C549.607 176.434 549.078 177.756 548.938 179.097C548.798 180.439 549.062 181.761 549.727 182.838C551.062 185.002 554.389 185.79 557.853 186.191C564.641 186.975 573.061 179.934 577.891 175.929C578.926 175.071 579.229 173.799 578.444 172.725C577.659 171.652 575.544 170.594 573.794 170.182C570.801 169.476 567.246 171.363 563.513 173.758C561.746 174.892 560.837 176.682 560.689 178.557C560.371 182.585 563.473 185.782 566.401 187.781C569.595 189.961 573.878 190.332 577.611 190.068C580.395 189.87 582.169 187.937 583.503 186.207C584.163 185.35 584.308 184.212 582.858 182.874C578.838 179.166 573.117 178.316 569.124 178.713C564.471 179.175 561.358 181.777 559.76 184.04C558.035 186.482 557.345 188.986 557.874 191.117C558.162 192.278 559.46 193.248 560.665 193.792C561.871 194.337 563.192 194.337 564.402 193.941C566.669 192.751 568.551 190.348 570.017 187.02C570.69 185.277 571.219 183.427 571.764 179.117" stroke="#4D4C48" stroke-width="2" stroke-linecap="round"/>
<path d="M439.592 120.642C440.385 130.423 441.178 140.203 443.04 145.638C444.903 151.073 447.81 151.867 450.366 152.011C452.921 152.155 455.036 151.626 456.918 148.71C461.749 141.228 462.021 132.417 461.228 127.619C460.505 123.245 455.629 121.451 451.375 119.721C445.194 117.206 439.343 116.637 436.275 118.091C432.03 120.103 434.249 127.827 435.046 132.225C435.418 134.279 436.372 135.83 437.573 136.911C438.775 137.993 440.361 138.521 442.5 137.868C447.662 136.293 450.534 132.401 451.467 130.271C451.927 129.22 452.136 128.14 452.008 127.066C451.88 125.993 451.351 124.936 450.153 124.127C444.032 119.991 435.619 121.972 430.664 124.367C427.366 125.961 426.511 130.239 426.11 133.567C425.902 135.302 425.974 137.159 426.635 138.641C427.296 140.123 428.618 141.181 429.959 141.725C432.478 142.748 436.099 141.741 440.096 139.883C444.529 137.822 446.256 133.467 448.255 131.208C450.891 128.228 451.071 123.598 450.149 119.473C448.791 113.389 442.275 111.302 439.744 110.501C438.562 110.127 437.477 110.229 436.271 110.361C426.744 111.405 424.372 132.898 424.636 137.564C424.752 139.601 425.429 140.908 427.023 142.118C428.618 143.327 431.261 144.385 433.68 144.93C436.099 145.474 438.214 145.474 441.154 143.624C444.094 141.773 447.794 138.073 449.701 135.241C451.607 132.409 451.607 130.559 451.211 128.813C450.427 125.362 447.618 122.789 444.422 120.79C437.86 116.687 430.268 117.438 424.66 119.296C423.174 119.789 422.257 121.155 421.58 122.492C420.194 125.233 420.896 128.901 422.093 132.101C422.621 133.512 423.555 134.244 424.757 134.917C425.958 135.589 427.544 136.118 429.286 135.862C433.071 135.305 437.429 130.815 441.699 125.621C445.115 121.464 444.398 117.182 444.001 115.051C443.792 113.926 442.812 112.92 441.346 112.508C439.88 112.095 437.765 112.359 435.09 115.8C422.169 132.415 424.372 140.38 425.165 143.98C425.874 147.198 431.029 147.341 434.89 147.609C439.013 147.896 443.837 144.962 448.371 141.097C451.611 138.335 453.466 134.548 455.068 130.287C456.58 126.265 451.119 119.617 443.517 112.812C439.212 108.959 435.867 108.627 433.204 108.759C431.857 108.826 430.54 109.155 428.802 110.745C418.719 119.969 421.168 133.707 421.564 137.039C421.746 138.563 422.754 139.579 423.955 140.652C425.157 141.725 426.743 142.783 428.75 142.799C433.257 142.835 439.287 137.232 445.159 131.364C447.464 129.06 447.858 127.611 446.28 125.344C441.95 119.123 434.281 116.373 429.346 116.236C427.317 116.18 426.263 116.893 425.057 117.826C423.851 118.76 422.53 120.081 421.981 121.82C420.818 125.504 423.026 129.702 425.818 133.563C429.231 138.284 435.026 140.396 440.485 140.932C443.287 141.208 446.208 140.412 449.028 138.421C451.848 136.431 454.491 132.994 455.853 130.299C457.215 127.603 457.215 125.753 456.554 124.006C455.181 120.38 451.623 118.511 448.163 117.578C444.258 116.525 439.88 117.166 436.015 119.024C431.856 121.024 430.788 127.026 429.719 131.953C428.618 137.025 431.565 142.246 435.555 146.512C443.736 155.259 452.128 151.883 454.924 150.957C458.846 149.659 459.882 144.689 460.283 141.493C460.68 138.319 459.361 134.548 456.966 130.815C454.826 127.48 450.822 126.786 447.362 126.518C445.493 126.373 443.373 126.778 441.755 127.707C438.57 129.536 437.197 133.443 435.995 136.507C435.587 137.985 435.587 139.306 436.644 139.326C437.701 139.346 439.816 138.025 442.796 135.862" stroke="#4D4C48" stroke-width="2" stroke-linecap="round"/>
<path d="M379.514 98.4131C379.514 103.171 379.514 107.929 380.439 110.381C381.364 112.832 383.215 112.832 384.036 112.039C384.857 111.246 384.592 109.66 384.06 108.446C383.093 106.244 381.388 104.565 379.926 102.566C379.144 101.497 377.671 100.832 376.462 101.349C375.252 101.866 374.195 103.716 374.311 105.198C374.427 106.68 375.749 107.737 377.619 108.282C379.49 108.827 381.869 108.827 383.755 107.901C385.642 106.976 386.963 105.126 387.248 103.512C387.532 101.898 386.739 100.576 385.802 99.6307C384.056 97.8696 380.075 97.6121 375.673 98.6694C373.678 99.1487 373.122 101.842 372.845 103.592C372.366 106.626 374.163 109.347 376.426 111.482C378.424 113.367 381.372 112.832 383.503 112.303C386.081 111.663 386.988 108.57 387.388 106.307C387.599 105.113 387.524 103.78 386.996 102.703C384.061 96.7231 373.666 96.01 369.661 96.803C368.115 97.1091 368.299 99.1821 368.828 100.396C369.357 101.609 370.414 102.402 371.355 102.15C372.296 101.898 373.09 100.576 373.102 99.2342C373.114 97.8924 372.321 96.5707 371.383 95.8898C370.446 95.2089 369.389 95.2089 368.315 95.6055C367.242 96.002 366.185 96.795 365.508 97.8644C364.133 100.036 364.294 102.939 365.219 105.867C366.555 110.094 371.223 111.494 374.944 111.895C377.333 112.152 380.779 112.031 383.078 111.106C385.377 110.18 386.435 108.33 386.451 106.187C386.486 101.547 383.263 97.8924 381.132 95.7577C380.181 94.8046 379.001 94.6803 377.928 95.0728C376.854 95.4653 375.797 96.5227 375.252 97.8604C374.708 99.1981 374.708 100.784 375.368 102.262C376.769 105.394 379.77 106.688 382.297 107.088C383.755 107.319 385.618 107.225 386.835 106.696C388.053 106.167 388.582 105.11 388.854 103.243C389.506 98.7726 388.069 94.4239 386.07 91.6243C385.129 90.4107 384.336 89.6177 383.002 89.2092C381.669 88.8007 379.818 88.8007 377.912 88.8007" stroke="#4D4C48" stroke-width="2" stroke-linecap="round"/>
<path d="M308.422 54.5561C306.307 56.9351 304.193 59.3142 303.103 61.0685C302.014 62.8228 302.014 63.8801 303.071 64.4248C305.932 65.8988 310.008 64.7052 312.147 63.5116C313.091 62.9848 312.171 60.9964 311.238 59.7828C307.687 55.1657 301.766 56.1581 298.83 56.6868C297.642 56.9008 297.48 58.2729 298.401 59.2141C299.322 60.1553 301.437 60.9483 303.055 61.0925C304.673 61.2367 305.731 60.708 306.143 59.7748C306.556 58.8416 306.291 57.5199 305.494 56.5747C304.697 55.6294 303.376 55.1008 302.166 54.9606C300.956 54.8204 299.899 55.0848 298.958 55.8818C298.017 56.6788 297.224 58.0005 297.476 58.8136C298.041 60.6353 302.791 59.899 306.924 58.9698C308.755 58.5583 309.736 57.2475 310.677 56.3063C311.618 55.3651 312.411 54.5721 310.309 54.1636C308.206 53.755 303.183 53.755 300.993 54.9446C298.802 56.1341 299.595 58.5132 301.457 59.7388C305.571 62.4462 310.809 60.1713 313.609 58.5733C314.874 57.8513 315.615 56.9752 315.099 55.6415C314.582 54.3077 312.732 52.4573 310.985 51.5041C309.239 50.5509 307.653 50.5509 305.647 51.2117C303.64 51.8726 301.261 53.1943 299.639 54.9326C298.017 56.6708 297.224 58.7855 298.533 60.5358C299.843 62.2861 303.279 63.6078 305.578 63.8921C307.877 64.1765 308.935 63.3835 309.744 62.1819C310.553 60.9804 311.082 59.3943 310.825 58.0486C310.313 55.3582 306.836 53.763 302.715 52.5615C300.249 51.8427 296.743 52.1529 294.973 52.8138C293.202 53.4747 293.202 54.7964 293.863 56.0059C295.307 58.6488 299.587 59.6266 303.984 60.0271C307.577 60.3543 310.809 59.1059 313.477 56.843C314.712 55.7953 315.087 54.3157 314.83 53.5027C313.639 49.7242 304.721 52.6816 298.962 55.6094C297.523 56.3411 296.695 58.0005 295.754 59.2101C294.812 60.4197 294.019 61.477 295.329 62.4182C305.992 70.0808 320.678 60.708 325.08 58.7094C326.896 57.8849 327.631 56.9752 327.247 55.6415C324.97 47.7439 311.162 44.7033 300.844 43.6059C293.315 42.805 288.941 50.2705 287.339 53.0661C286.558 54.4295 286.794 56.1261 287.984 57.4718C290.833 60.6954 295.325 60.9644 298.517 60.7C302.767 59.907 306.54 58.8336 308.939 57.636C310.016 56.9672 310.809 56.1742 311.626 55.3571" stroke="#4D4C48" stroke-width="2" stroke-linecap="round"/>
<path d="M225.113 121.043C224.584 121.043 222.726 124.479 222.041 128.364C221.197 133.152 232.034 120.538 233.784 115.736C234.445 113.923 230.512 113.048 227.825 113.565C222.333 114.621 218.985 120.218 216.982 124.351C216.162 126.044 216.302 127.163 217.095 128.104C218.992 130.355 223.223 130.391 227.22 129.462C229.164 129.01 230.688 127.739 231.505 126.402C232.322 125.064 232.322 123.478 231.926 122.132C231.529 120.786 230.736 119.729 229.006 119.052C224.84 117.422 219.265 118.896 214.203 121.423C209.175 123.933 205.904 130.351 204.294 136.487C203.676 138.842 205.856 139.979 207.334 140.26C214.366 141.594 221.348 129.886 222.578 124.535C222.938 122.968 222.181 120.818 221.649 119.332C219.28 112.725 205.912 114.098 201.514 114.895C199.46 115.267 197.91 116.22 198.018 118.347C198.126 120.474 199.976 123.91 201.855 125.813C204.885 128.882 210.662 128.252 216.261 127.988C220.348 127.795 223.495 124.535 226.03 120.67C227.122 119.005 227.244 117.598 226.719 116.917C226.194 116.236 224.873 116.236 223.267 117.029C219.504 118.887 217.111 122.629 215.909 126.089C215.28 127.901 215.501 130.078 216.294 131.696C217.087 133.315 218.673 134.372 220.547 134.917C222.421 135.461 224.536 135.461 226.419 134.668C230.295 133.035 233.107 129.598 235.643 126.674C237.014 125.092 236.856 122.164 236.332 120.141C235.372 116.444 231.537 114.378 228.606 112.644C227.309 111.877 226.202 111.703 224.865 111.963C217.488 113.398 210.726 124.455 208.427 131.568C207.972 132.977 208.291 134.628 209.216 135.842C210.142 137.055 211.992 137.848 213.87 137.993C217.608 138.279 222.149 135.477 226.419 131.885C228.395 130.222 228.573 127.499 228.714 125.745C228.938 122.939 226.731 119.729 223.535 116.26C221.021 113.533 217.119 113.833 213.79 114.23C210.032 114.678 207.234 117.822 205.5 120.886C204.699 122.301 204.558 123.686 204.686 124.896C204.815 126.105 205.343 127.163 208.391 127.707C226.926 131.02 242.672 120.546 247.935 116.116C249.492 114.805 248.079 111.975 246.753 109.976C244.88 107.152 239.291 107.425 234.625 107.822C223.297 108.784 215.517 130.335 213.37 136.775C212.856 138.317 213.097 140.492 214.155 141.846C215.212 143.199 217.327 143.728 219.077 143.34C222.51 142.578 224.304 139.21 225.506 136.551C226.186 135.044 225.914 132.834 224.592 130.555C213.939 121.595 204.831 117.574 202.039 117.174C200.305 117.037 197.926 117.037 195.475 117.037" stroke="#4D4C48" stroke-width="2" stroke-linecap="round"/>
<path d="M67.3084 232.387C67.3084 233.973 70.2162 239.019 76.0758 242.52C83.6169 247.025 84.9313 227.605 84.7991 223.339C84.699 220.108 83.0729 217.447 80.6777 214.916C78.135 212.229 74.2694 211.296 70.6728 211.292C68.9072 211.29 67.3404 212.345 65.8625 213.679C57.1965 221.499 63.2872 245.38 66.6235 252.14C70.3225 259.636 78.7633 240.702 80.7899 233.612C81.4889 231.167 80.6617 228.662 79.2038 225.999C78.3416 224.423 75.8955 223.335 73.7488 222.654C71.602 221.973 69.4872 221.973 67.4726 222.766C55.4495 227.499 56.8949 253.15 58.489 263.727C58.8008 265.797 59.5543 267.072 61.2806 268.149C63.0068 269.227 65.9146 270.02 68.3377 270.164C70.7609 270.308 72.6113 269.779 74.8862 267.26C87.017 253.826 85.7323 234.341 84.4066 226.928C83.9246 224.233 79.0757 223.583 74.4216 222.382C71.6783 221.674 67.9172 221.973 64.689 223.692C57.7919 227.363 55.3008 233.973 54.0993 237.301C52.8715 240.702 53.9551 244.386 55.9417 247.582C59.0275 252.547 65.6903 252.413 69.283 251.752C74.0165 250.881 77.7059 245.5 80.6377 239.508C83.5832 233.488 84.1302 227.869 83.4694 223.74C82.7829 219.45 78.0103 216.911 74.0131 215.177C72.1779 214.38 70.5446 214.235 68.4058 215.024C59.5784 225.914 56.8949 243.289 57.4236 250.362C57.9523 252.941 59.0096 253.47 60.099 254.015" stroke="#4D4C48" stroke-width="2" stroke-linecap="round"/>
<path d="M64.9064 237.193C63.3203 240.365 68.3188 237.505 77.1302 229.771C80.4468 226.86 80.1261 224.68 79.3331 223.595C78.54 222.51 76.954 222.245 74.8152 224.356C69.0115 230.084 66.5164 240.349 66.6366 245.84C66.9024 257.984 76.1209 227.861 75.46 225.594C75.1372 224.486 73.4775 224.12 70.9462 225.433C64.1308 228.971 60.1081 236.36 58.9066 242.223C58.3601 244.89 58.498 247.029 59.0267 248.78C59.5554 250.53 60.6128 251.852 62.2149 252.797C63.8169 253.742 65.9317 254.271 67.8141 254.279C71.3215 254.294 75.0315 250.306 78.5 244.71C80.0855 242.153 80.3824 239.644 80.1261 237.097C79.59 231.769 72.9648 226.01 64.1694 221.468C60.3814 219.512 56.96 220.627 54.2686 222.618C42.6766 231.191 44.8804 243.048 45.5412 246.777C46.2782 250.935 51.0003 253.998 55.1297 256.798C58.7342 259.242 64.3376 259.622 70.2052 259.357C72.6482 259.247 73.9581 258.564 75.2998 256.97C78.5229 253.141 79.5894 247.63 79.8577 243.1C80.3261 235.195 72.9488 227.885 67.9944 224.116C67.01 223.367 65.4671 224.104 64.3897 224.901C62.5193 227.019 61.1735 232.611 60.3725 239.944C60.1001 243.048 60.1001 244.899 62.5032 246.805" stroke="#4D4C48" stroke-width="2" stroke-linecap="round"/>
<path d="M34.4677 327.71C33.6746 329.561 32.8816 331.411 34.1913 332.232C35.501 333.053 38.9375 332.789 40.7078 331.331C42.4781 329.873 42.4781 327.23 41.9494 325.868C41.4207 324.506 40.3633 324.506 39.1578 324.771C37.9522 325.035 36.6305 325.564 35.6853 326.497C33.7682 328.39 33.4023 331.435 33.0018 333.967C32.8116 335.169 32.8656 336.233 34.4517 336.117C36.0377 336.001 39.2098 334.679 41.9013 331.223C44.5928 327.766 46.7076 322.215 47.1361 318.563C47.5647 314.91 46.243 313.324 44.6369 312.507C41.4712 310.896 36.8948 312.483 32.365 315.535C26.4118 319.546 26.4573 327.951 27.1181 332.352C27.397 334.21 29.1007 334.904 30.3103 335.444C31.5199 335.985 32.5772 336.249 33.6506 336.121C35.8646 335.857 38.1925 333.069 40.1951 329.737C41.0352 328.339 40.876 327.198 40.6117 325.992C38.7653 317.572 25.9366 313.027 23.8019 313.156C17.6866 313.523 22.9808 328.223 24.1783 331.824C24.6926 333.37 25.6402 334.103 27.3705 334.115C29.1007 334.127 31.7441 333.334 33.7668 331.603C37.9506 328.024 39.0016 322.92 39.1417 320.253C39.202 319.105 37.4315 318.643 35.8254 320.353C31.2765 325.197 30.4625 333.55 30.5947 339.55C30.6512 342.116 30.9912 343.699 32.3169 345.309C35.427 349.086 40.3233 350.404 43.7878 350.276C47.0598 350.155 49.4071 344.829 51.4097 339.233C52.3439 336.623 52.0905 334.167 50.6367 331.619C47.2759 325.731 39.8427 321.855 33.5785 319.58C30.8909 318.604 28.6361 320.213 27.1502 322.608C23.7193 328.138 24.0542 335.16 24.9794 339.033C25.3369 340.53 27.755 339.998 29.6334 338.408C34.0928 334.634 35.7974 329.857 36.7306 327.33C37.9039 324.153 37.1432 320.517 35.6813 317.85C34.9948 316.597 33.4263 316.24 31.9524 316.76C28.8925 318.867 26.994 321.823 26.5935 324.486C26.4573 325.828 26.4573 327.15 26.4573 328.511" stroke="#4D4C48" stroke-width="2" stroke-linecap="round"/>
<path d="M27.2574 449.468C27.2574 450.525 27.2574 451.583 28.9757 451.863C30.6939 452.143 34.1303 451.615 34.9754 450.682C36.6327 448.852 31.535 446.008 30.0731 444.273C29.33 443.392 27.8181 443.332 26.2121 443.328C24.606 443.324 22.7556 443.588 20.4806 445.971C14.6426 452.087 12.3101 460.122 11.6412 464.92C11.343 467.059 11.7653 468.661 12.8267 470.139C17.3336 476.414 28.5231 476.96 37.3786 475.778C40.6294 475.344 42.9978 471.913 45.2648 468.981C46.9892 466.751 47.2834 463.903 46.4904 460.574C44.1081 450.576 31.8073 449.204 29.5444 449.067C28.3342 448.995 27.0171 449.724 25.6754 451.054C22.5827 454.119 21.6502 459.585 22.1788 464.519C22.402 466.602 23.7649 467.603 24.8383 468.28C25.9117 468.957 26.9691 469.222 28.7033 468.3C33.2183 465.902 35.7965 460.971 36.5975 456.445C37.0204 454.056 36.8699 451.39 36.209 449.632C35.0723 446.608 31.543 445.735 29.0117 444.934C27.8296 444.56 26.7448 444.662 25.6714 445.058C24.598 445.455 23.5406 446.248 22.7316 447.317C21.0785 449.502 20.8491 453.713 21.7743 458.512C22.2183 460.814 24.5499 462.253 26.164 463.07C28.8829 464.446 32.8407 462.829 37.1062 460.434C40.891 458.309 42.2048 454.29 42.7415 450.962C43.0189 449.242 42.2208 447.369 40.6268 445.491C36.9746 441.187 32.0797 439.591 29.1479 439.191C27.8077 439.008 26.7448 439.055 25.6714 439.715C18.1511 444.345 18.446 459.048 20.4366 467.992C21.3129 471.929 25.1106 473.491 27.7701 474.825C31.1695 476.53 35.5161 475.902 39.245 474.977C43.7566 473.858 45.6733 468.18 47.007 464.183C48.134 460.805 48.0844 458.023 47.5557 455.496C45.0299 443.421 24.3577 436.139 17.2685 433.055C15.8589 432.442 14.7292 432.646 13.9201 433.307C13.1111 433.968 12.5824 435.29 12.4422 436.631C13.6318 442.771 16.2992 448.122 18.2978 450.121C19.239 451.062 20.0321 451.855 20.8491 454.274" stroke="#4D4C48" stroke-width="2" stroke-linecap="round"/>
<path d="M339.663 391.793C338.077 391.793 331.973 398.666 325.681 410.401C323.335 414.777 328.112 417.907 331.336 419.929C337.253 423.641 343.901 424.635 350.297 423.446C363.025 421.079 362.893 407.557 362.761 405.294C362.303 397.449 349.82 393.131 347.425 392.73C344.539 392.247 340.488 394.709 336.619 398.838C333.638 402.02 334.056 406.724 335.113 410.457C335.64 412.317 338.286 413.132 340.168 413.677C342.05 414.222 343.636 414.222 345.775 412.636C351.194 408.617 353.545 403.552 353.417 400.893C353.225 396.908 349.027 393.94 343.316 391.412C333.961 387.273 325.004 386.45 319.81 387.908C314.093 389.512 311.106 396.567 309.632 402.695C308.94 405.573 310.538 408.294 313.197 410.713C319.298 416.263 327.087 417.955 332.017 418.756C334.291 419.125 336.155 419.028 338.43 417.574C343.969 414.034 346.865 408.895 348.331 405.835C350.074 402.195 349.812 398.217 348.751 395.285C347.66 392.273 344.213 391.529 341.95 391.128C340.756 390.917 339.423 390.992 338.081 391.521C335.197 392.657 333.263 395.782 331.929 398.978C331.275 400.546 331.124 402.174 331.781 403.917C332.438 405.659 334.024 407.509 335.898 408.595C339.543 410.705 343.124 409.952 345.519 409.023C348.682 407.796 351.399 403.832 353.401 399.435C354.284 397.496 354.082 395.83 353.157 394.352C352.232 392.874 350.381 391.553 348.503 390.872C346.624 390.191 344.774 390.191 342.066 390.992" stroke="#4D4C48" stroke-width="2" stroke-linecap="round"/>
<path d="M294.003 479.106C293.475 479.106 288.444 487.3 283.482 495.751C279.03 503.332 292.93 478.585 293.863 476.054C294.681 473.836 294.54 470.847 292.818 467.779C291.888 466.123 288.717 466.033 285.901 466.686C279.815 468.097 275.596 472.946 272.664 476.807C271.201 478.734 270.261 480.932 270.377 483.079C270.493 485.226 271.815 487.34 273.421 488.562C275.027 489.784 276.877 490.048 278.623 489.92C286.422 489.347 292.113 478.609 294.26 472.473C295.064 470.174 292.177 468.981 289.766 468.7C277.765 467.305 264.701 490.753 260.496 499.913C259.933 501.138 260.36 502.576 261.285 503.918C263.469 507.085 269.932 508.472 277.262 509.273C290.212 510.688 302.246 501.038 307.453 494.638C309.49 492.134 309.223 490.352 307.901 487.949C304.604 481.955 298.305 477.784 292.842 475.649C288.378 473.905 283.614 475.093 278.555 477.484C267.221 482.841 265.711 489.511 264.637 491.242C264.143 492.038 265.679 493.236 267.677 493.913C272.409 495.515 278.752 494.862 284.615 493.933C296.128 492.108 306.5 472.794 310.024 462.576C310.557 461.031 308.711 459.641 306.712 458.96C304.713 458.279 301.806 458.279 299.118 459.733C284.624 467.574 289.197 490.561 290.255 494.169C291.148 497.218 299.042 489.559 304.513 483.023C306.618 480.508 307.076 479.394 306.027 478.585C304.978 477.776 302.334 477.247 300.312 477.239C292.056 477.207 287.339 488.71 285.605 490.44C284.786 491.257 284.663 492.435 285.32 493.508C285.977 494.582 287.563 495.639 289.834 495.655C295.116 495.692 299.595 492.203 302.394 489.539C304.81 487.241 305.482 484.457 305.222 482.194C305.072 480.888 303.376 479.666 301.637 479.118C299.899 478.569 297.784 478.833 296.298 479.763C294.812 480.692 294.019 482.278 291.6 486.315" stroke="#4D4C48" stroke-width="2" stroke-linecap="round"/>
<path d="M282.789 478.505C282.26 479.827 281.731 481.148 282.516 482.754C283.301 484.361 285.416 486.211 287.166 486.503C288.917 486.796 290.238 485.474 291.052 484.132C291.865 482.791 292.129 481.469 292.001 480.259C291.873 479.05 291.344 477.992 289.486 477.844C287.627 477.696 284.455 478.489 280.97 482.863C272.092 494.007 269.179 507.567 267.978 514.504C267.51 517.202 267.569 518.268 269.155 517.756C282.814 513.341 289.694 491.93 291.736 482.134C291.999 480.874 290.287 480.908 288.42 481.833C283.676 484.185 278.543 491.538 274.802 499.676C273.423 502.678 274.234 503.85 275.96 504.13C277.686 504.41 280.594 503.882 283.678 502.023C302.048 490.953 302.815 464.639 301.89 461.835C301.473 460.574 299.114 460.882 296.707 461.543C282.497 465.444 277.983 482.766 278.379 485.162C278.607 486.538 279.569 488.085 281.299 489.299C285.238 492.062 291.04 491.858 295.838 490.929C299.881 490.146 303.592 484.681 307.329 478.813C309.525 475.365 309.223 472.641 308.827 470.511C308.38 468.111 303.384 466.762 296.987 466.093C285.485 464.89 275.083 477.928 269.72 485.955C268.714 487.46 268.642 488.63 269.167 489.836C270.416 492.705 274.49 494.253 278.487 494.79C281.963 495.257 287.291 490.024 293.162 483.756C295.461 481.302 295.862 479.867 294.68 479.186C285.745 479.827 279.344 484.889 274.678 489.551C272.656 491.834 271.334 493.949 269.972 496.128" stroke="#4D4C48" stroke-width="2" stroke-linecap="round"/>
<path d="M345.269 404.81C344.212 405.339 343.139 406.933 342.734 408.407C342.682 408.596 343.651 407.502 343.135 406.164C342.618 404.826 340.768 403.24 338.625 402.291C336.482 401.342 334.103 401.077 332.217 401.338C330.33 401.598 329.008 402.391 328.988 403.857C328.968 405.323 330.29 407.438 332.028 408.923C335.431 411.832 340.175 412.019 344.172 411.226C346.176 410.829 347.641 408.847 348.193 407.105C348.746 405.363 348.217 403.512 347.02 402.427C344.55 400.188 339.951 401.069 336.482 401.999C334.018 402.659 333.262 405.868 332.06 408.263C331.433 409.513 331.652 411.186 332.18 412.268C332.709 413.349 333.767 413.878 334.972 414.15C341.39 415.6 348.986 409.368 351.53 405.507C352.66 403.79 350.636 401.382 347.048 399.764C338.135 395.745 329.273 396.263 324.478 397.457C321.967 398.082 319.684 399.972 318.194 401.846C316.704 403.721 316.176 405.835 317.093 407.85C319.198 412.473 325.484 414.679 330.943 416.413C336.471 418.169 340.984 417.362 344.176 416.301C353.316 413.262 355.675 405.363 356.877 402.031C357.398 400.585 357.285 399.491 356.095 397.889C353.024 393.752 346.904 390.936 340.908 389.334C338.13 388.592 335.705 388.789 333.026 391.433C326.12 398.246 324.178 406.661 323.778 409.993C323.6 411.47 323.641 412.532 324.831 413.606C327.917 416.39 334.023 416.033 339.49 414.435C343.285 413.325 346.054 410.433 348.854 407.369C350.144 405.958 350.861 404.57 350.608 402.699C350.356 400.829 349.034 398.45 347.296 396.828C343.971 393.725 339.414 393.331 335.817 393.195C334.068 393.129 332.485 393.852 331.271 394.917C325.573 399.92 326.045 408.527 326.441 412.26C326.617 413.916 327.631 414.935 329.229 415.612C332.992 417.206 336.979 416.826 339.907 416.429C348.497 415.266 352.735 405.099 354.469 401.366C355.208 399.775 355.411 398.69 353.432 397.088C347.809 392.535 340.487 391.193 335.825 391.457C331.364 391.71 327.927 394.116 325.792 397.308C324.979 399.179 324.715 401.558 324.711 403.312C324.707 405.067 324.971 406.124 326.045 407.213" stroke="#4D4C48" stroke-width="2" stroke-linecap="round"/>
<path d="M15.2415 452.872C18.4136 452.079 21.5857 451.286 23.2198 451.406C25.2286 451.553 25.647 454.73 28.1702 456.332C29.7016 457.304 32.5439 456.877 33.9057 456.216C35.2674 455.555 35.2674 454.233 34.6066 453.552C33.9457 452.872 32.624 452.872 31.5466 453.4C30.4692 453.929 29.6762 454.986 29.2677 456.324C28.8591 457.662 28.8591 459.248 29.52 460.858C30.1808 462.468 31.5025 464.054 32.9765 465.135C34.4504 466.217 36.0364 466.746 37.3822 465.961C38.7279 465.176 39.7853 463.061 39.9335 461.443C40.0817 459.825 39.2886 458.767 38.4836 457.826C37.6785 456.885 36.8855 456.092 35.4196 455.683C33.9537 455.275 31.839 455.275 30.0887 455.936C28.3384 456.596 27.0167 457.918 26.2037 459.656C24.5086 463.28 24.8539 467.803 26.0435 472.197C26.7153 474.678 29.6121 476.855 31.3664 478.212C33.1206 479.57 34.178 479.835 35.5157 479.442C36.8535 479.05 38.4395 477.992 39.5209 476.919C41.4164 475.037 41.6757 469.998 41.147 463.862C40.9331 461.379 39.561 460.369 37.1659 459.825C31.1981 458.467 26.1997 460.073 24.5976 461.935C23.8149 462.845 24.0529 464.326 24.7137 465.536C26.1577 468.179 29.9085 469.95 34.166 471.155C39.3173 472.614 43.2698 468.636 44.7357 466.505C45.4537 465.462 45.9373 464.374 45.9453 462.772C45.9533 461.17 45.4246 459.056 43.9627 457.305C40.8098 453.53 35.8201 452.872 32.4878 453.004C31.0012 453.063 29.9485 453.4 28.8751 454.462C27.8017 455.523 26.7444 457.373 26.1997 459.252C25.655 461.13 25.655 462.981 25.655 464.887" stroke="#4D4C48" stroke-width="2" stroke-linecap="round"/>
<path d="M36.8691 304.68C35.8117 305.209 33.6809 311.561 31.9387 320.773C31.3559 323.854 33.1042 323.905 34.8424 322.715C36.5807 321.526 38.6955 319.147 39.5205 317.26C40.3456 315.374 39.8169 314.052 38.4872 314.561C28.1335 318.521 30.4608 332.436 31.2538 334.438C31.6386 335.41 33.6329 335.119 35.243 334.326C36.8531 333.533 38.4391 331.947 39.5205 330.602C40.6019 329.256 41.1306 328.198 40.3456 326.068C38.2562 320.396 31.8306 315.117 26.0951 311.381C23.8581 309.923 22.7388 309.759 21.0045 310.944C16.3652 314.115 14.1756 323.841 14.0395 333.982C13.9737 338.88 17.0914 342.305 20.8203 346.042C23.6925 348.92 27.7773 347.936 30.1764 347.539C32.3634 347.178 34.7143 343.682 37.7823 340.218C40.0469 337.661 40.0732 334.334 39.8089 331.403C39.5816 328.882 37.6781 327.117 35.9479 325.783C35.0909 325.123 33.9533 324.978 33.0121 325.239C32.0709 325.499 31.2778 326.292 30.8693 328.551C29.8062 334.429 31.2538 339.381 33.3806 341.115C34.5397 342.06 36.5647 342.056 38.0466 341.928C40.6597 341.702 43.2614 337.29 45.7967 331.29C47.4794 327.308 47.2826 323.657 46.3574 319.663C44.058 309.739 35.8117 308.957 33.5488 308.156C32.3837 307.744 31.0215 307.884 29.1511 308.941C24.5348 311.551 21.393 316.936 19.6588 322.131C18.0693 326.892 18.4452 331.891 18.9739 336.289C23.7641 342.849 30.1724 347.383 34.0374 350.451C35.7877 351.669 37.1094 352.197 39.2722 353.543" stroke="#4D4C48" stroke-width="2" stroke-linecap="round"/>
<path d="M35.2675 338.324C46.7464 304.969 49.3978 294.331 51.4165 285.484C53.4134 276.731 55.2775 264.42 56.3589 250.923C56.6232 248.352 57.1519 247.294 57.4242 246.089C57.6966 244.883 57.6966 243.561 57.6966 242.2" stroke="#4D4C48" stroke-width="2" stroke-linecap="round"/>
<path d="M32.8648 342.329C32.6005 342.329 32.3361 342.329 32.7286 352.77C33.1211 363.212 34.1785 384.095 34.9876 396.439C35.7966 408.783 36.3253 411.955 36.7298 421.651C37.1344 431.348 37.3987 447.473 37.667 456.573C37.9354 465.672 38.1997 467.258 38.4721 469.694" stroke="#4D4C48" stroke-width="2" stroke-linecap="round"/>
<path d="M36.0683 469.694C37.6544 469.694 39.2404 469.694 52.0851 469.826C64.9298 469.958 88.985 470.223 104.813 470.755C127.541 471.52 138.033 472.898 144.429 473.03C149.781 473.141 167.022 473.964 190.244 474.232C200.252 474.348 215.629 473.699 237.646 473.964C255.839 474.182 268.61 477.16 275.283 478.101C277.421 478.498 280.065 479.291 282.484 479.699C284.903 480.108 287.018 480.108 289.197 480.108" stroke="#4D4C48" stroke-width="2" stroke-linecap="round"/>
<path d="M294.002 479.306C295.332 475.845 297.991 468.94 304.111 457.61C318.826 429.665 320.965 421.134 324.826 413.38C325.771 411.762 326.3 410.705 327.646 408.814" stroke="#4D4C48" stroke-width="2" stroke-linecap="round"/>
<path d="M342.867 404.809C344.982 405.338 349.244 406.403 364.095 412.892C376.002 418.094 395.864 429.161 408.328 435.269C424.736 443.309 434.666 447.496 443.998 453.232C454.902 459.933 472.251 467.739 484.623 474.487C488.945 476.845 495.289 479.546 501.717 482.634C505.174 484.096 511.045 487.028 517.714 490.76C520.418 492.378 521.739 493.436 523.101 494.525" stroke="#4D4C48" stroke-width="2" stroke-linecap="round"/>
<path d="M375.709 105.222C375.709 106.015 375.709 106.808 375.445 118.848C375.18 130.887 374.652 154.149 373.322 175.517C371.992 196.885 369.877 215.653 368.524 226.379C367.17 237.105 366.641 239.219 365.708 253.922C364.775 268.625 363.453 295.853 360.658 317.941C357.862 340.03 353.632 356.155 351.454 367.369C349.275 378.584 349.275 384.399 348.474 391.993" stroke="#4D4C48" stroke-width="2" stroke-linecap="round"/>
<path d="M302.013 61.1648C339.638 79.837 347.112 84.6512 354.982 88.6484C359.64 91.5722 365.792 95.0567 372.192 97.9925C374.892 99.0779 376.478 99.3422 378.913 100.416" stroke="#4D4C48" stroke-width="2" stroke-linecap="round"/>
<path d="M34.4662 454.474C34.7305 454.474 34.9949 454.474 42.4005 440.86C49.8061 427.247 64.345 400.019 80.558 374.23C96.771 348.441 114.218 324.914 123.866 309.887C141.678 282.145 140.732 270.267 142.466 265.445C143.946 261.331 147.397 256.121 151.13 245.191C154.847 234.305 162.336 223.03 167.799 212.108C176.37 194.972 181.537 181.144 186.119 170.002C188.728 163.656 192.527 156.792 198.114 148.121C208.019 131.936 209.886 128.195 211.484 126.065C212.289 124.991 213.082 123.934 215.501 120.441" stroke="#4D4C48" stroke-width="2" stroke-linecap="round"/>
<path d="M222.712 117.237C222.183 117.237 221.118 122.788 220.709 131.464C220.561 134.608 222.68 135.116 224.158 134.728C226.957 133.018 230.169 128.484 232.973 123.149C233.926 120.986 233.926 119.929 233.125 118.839" stroke="#4D4C48" stroke-width="2" stroke-linecap="round"/>
<path d="M72.1158 243C88.7695 230.047 105.423 217.095 118.1 206.589C139.407 188.931 149 178.669 154.575 173.354C158.399 169.708 164.908 164.867 172.142 158.05C197.062 133.002 200.811 129.798 202.141 127.799C202.942 126.858 203.999 126.065 206.69 124.447" stroke="#4D4C48" stroke-width="2" stroke-linecap="round"/>
<path d="M72.1158 253.413C74.7593 255.792 77.4027 258.171 89.4704 269.574C101.538 280.977 122.95 301.331 134.773 313.006C148.595 326.655 151.931 331.891 157.647 337.346C165.58 344.918 174.088 350.843 179.944 357.76C183.263 361.681 186.857 366.792 193.389 373.212C199.922 379.633 209.174 387.299 218.566 396.799C227.958 406.299 237.21 417.402 243.694 424.707C257.839 440.643 263.003 445.646 270.613 453.641C278.728 464.022 292.113 477.96 295.726 480.896C296.663 481.701 297.72 482.494 298.81 484.112" stroke="#4D4C48" stroke-width="2" stroke-linecap="round"/>
<path d="M444.599 135.662C440.37 154.166 436.14 172.67 430.525 194.89C424.91 217.111 418.037 242.488 410.663 263.888C403.29 285.287 395.624 301.941 391.278 311.974C385.744 324.751 383.737 331.083 380.276 339.061C375.564 349.926 372.786 359.656 370.255 364.722C363.778 377.688 354.354 397.024 353.417 404.117C353.281 405.859 353.281 407.71 353.017 409.192C352.752 410.674 352.224 411.731 351.679 413.622" stroke="#4D4C48" stroke-width="2" stroke-linecap="round"/>
<path d="M430.179 138.865C469.302 129.878 492.099 123.397 500.202 119.008C513.215 111.958 525.735 108.178 531.735 105.11C535.743 103.06 549.678 102.554 569.556 100.568C577.274 98.8456 580.182 95.6735 582.208 93.7751C584.235 91.8766 585.292 91.3479 587.183 90.8032" stroke="#4D4C48" stroke-width="2" stroke-linecap="round"/>
<path d="M437.389 138.865C446.425 142.847 460.299 151.906 471.657 157.538C483.328 163.323 492.372 167.687 498.112 169.966C503.625 172.155 512.366 172.509 525.972 174.636C531.038 175.176 538.176 175.441 544.892 175.974C551.609 176.506 557.689 177.299 565.555 178.917" stroke="#4D4C48" stroke-width="2" stroke-linecap="round"/>
<path d="M69.7119 240.596C71.0336 241.654 72.3553 242.711 81.363 249.071C90.3706 255.432 107.024 267.063 117.189 273.847C127.355 280.632 130.527 282.218 138.902 287.265C147.276 292.311 160.758 300.77 168.893 306.185C179.657 313.351 184.236 317.48 188.634 320.279C192.114 322.495 205.24 327.597 225.238 335.067C239.12 340.252 250.162 342.841 260.283 347.895C271.113 353.304 280.337 360.728 289.132 365.39C296.594 369.345 308.333 376.196 324.458 384.322C344.725 395.99 348.986 398.657 352.719 400.656C354.337 401.597 355.394 402.39 358.086 403.207" stroke="#4D4C48" stroke-width="2" stroke-linecap="round"/>
<path d="M294.002 57.7606C294.795 59.0823 295.588 60.404 302.737 70.3369C309.887 80.2698 323.368 98.7737 336.922 120.73C350.475 142.687 363.692 167.535 371.955 182.054C380.218 196.572 383.126 200.009 386.738 205.612C390.351 211.215 394.58 218.881 398.345 226.399C402.11 233.917 405.282 241.054 411.014 250.15C416.745 259.245 424.94 270.083 435.373 287.166C445.807 304.248 458.231 327.245 466.085 341.208C473.939 355.17 476.847 359.399 480.592 367.922C484.337 376.445 488.831 389.134 493.393 400.032C501.737 419.966 508.136 433.399 510.002 441.269C511.659 448.257 514.272 452.912 516.947 458.523C520.047 465.026 524.942 472.105 529.223 481.209C530.557 483.616 532.407 486.524 533.889 489.211C535.371 491.899 536.428 494.278 539.12 498.331" stroke="#4D4C48" stroke-width="2" stroke-linecap="round"/>
<path d="M223.512 124.247C228.535 131.648 233.557 139.05 242.092 155.155C250.628 171.259 262.523 195.843 277.11 229.259C291.697 262.674 308.615 304.176 318.255 326.745C327.896 349.314 329.746 351.693 332.814 358.073C345.262 388.293 347.401 397.368 347.806 403.12C347.938 404.594 348.202 406.18 348.474 408.615" stroke="#4D4C48" stroke-width="2" stroke-linecap="round"/>
<path d="M220.307 124.247C224.272 148.566 228.237 172.886 231.866 202.2C235.495 231.514 238.667 265.085 243.605 295.993C248.544 326.901 255.152 354.128 259.35 369.873C263.547 385.617 265.133 389.053 269.651 403.909C274.169 418.764 281.571 444.934 285.383 460.53C289.196 476.126 289.196 480.356 289.196 484.713" stroke="#4D4C48" stroke-width="2" stroke-linecap="round"/>
<path d="M821.353 387.046C821.695 380.5 822.038 373.953 822.728 353.698C823.419 333.442 824.446 299.676 824.462 278.836C822.391 238.148 823.076 223.844 824.114 219.156C824.467 216.879 824.467 214.812 824.467 212.682" stroke="#4D4C48" stroke-width="2" stroke-linecap="round"/>
</svg>
