<svg width="50" height="37" viewBox="0 0 50 37" fill="none" xmlns="http://www.w3.org/2000/svg">
<path d="M0.353594 11.4859C-0.712454 5.62311 0.755407 4.61559 3.10527 2.51245C5.13738 0.693705 6.21609 1.33514e-05 11.8397 0C18.1833 0 24.881 5.62311 23.3258 11.4859C21.0117 20.2094 20.2147 21.1769 11.8397 22.9717C3.10527 24.2878 1.55012 18.0662 0.353594 11.4859Z" fill="#E87F52"/>
<path d="M34.7976 29.5528C34.7976 34.2189 31.6929 36.0753 27.7443 36.0752C22.0012 36.075 22.0012 33.902 22.0012 29.7144C22.0012 26.5426 22.3544 23.3313 25.465 23.3313C28.5759 23.3313 30.5169 24.1884 32.4105 25.1875C33.7173 25.877 34.7976 28.0819 34.7976 29.5528Z" fill="#E87F52"/>
<path d="M50.0005 14.9482C50.0005 8.28693 45.3343 9.83331 42.2235 9.83331C39.1125 9.83331 34.6857 10.7437 34.6857 14.9482C34.6856 22.4474 40.6682 23.8327 40.6682 23.8327C40.6682 23.8327 50.0003 25.2971 50.0005 14.9482Z" fill="#E87F52"/>
<path d="M15.5406 19.3209L25.112 26.9781" stroke="#E87F52" stroke-width="2" stroke-linecap="round"/>
<path d="M32.768 26.9779L38.5111 19.3206" stroke="#E87F52" stroke-width="2" stroke-linecap="round"/>
</svg>
