<?xml version='1.0' encoding='utf-8'?>
<svg xmlns="http://www.w3.org/2000/svg" fill="none" viewBox="0 0 1080 1080" width="1080" height="1080"><defs><clipPath id="assetClipPath_W3lClven"><path d="m0 0 h 1217 v 646 h -1217 v -646 z" id="path_VlXTYtb7" fill="#ffffff" /></clipPath><clipPath id="assetClipPath_-QqEXILe"><path d="m0 0 h 1217 v 646 h -1217 v -646 z" id="path_ldPyJniN" fill="#ffffff" /></clipPath><clipPath id="assetClipPath_wu-VuBCK"><path d="m0 0 h 858 v 646 h -858 v -646 z" id="path_uf2v-XSn" fill="#ffffff" /></clipPath><clipPath id="assetClipPath_0si7Y0iZ"><path d="m0 0 h 295.473 v 127.241 h -295.473 v -127.241 z" id="path_bM4tHJ3Y" fill="#ffffff" /></clipPath><clipPath id="assetClipPath_eXeSLOaA"><path d="m0 0 h 317.429 v 175.327 h -317.429 v -175.327 z" id="path_S6zEzkaT" fill="#ffffff" /></clipPath><clipPath id="assetClipPath_gMmzuoLc"><path d="m0 0 h 150.651 v 150.764 h -150.651 v -150.764 z" id="path_U_FY1poW" fill="#ffffff" /></clipPath></defs><g transform="translate(-60 21)" data-asset-index="-1"><g clip-path="url(#assetClipPath_W3lClven)" transform="scale(1 1)" data-asset-index="-1"><path fill="#000000" d="M211.34 396.34L211.34 396.34Q193.82 396.34 184.57 385.75Q175.31 375.17 175.31 355.17L175.31 355.17L175.31 285.77Q175.31 267.01 184.48 257.30Q193.66 247.59 211.34 247.59L211.34 247.59Q229.02 247.59 238.19 257.30Q247.36 267.01 247.36 285.77L247.36 285.77L247.36 355.17Q247.36 375.17 238.11 385.75Q228.85 396.34 211.34 396.34ZM211.59 369.44L211.59 369.44Q218.23 369.44 218.23 356.58L218.23 356.58L218.23 285.27Q218.23 274.48 211.75 274.48L211.75 274.48Q204.45 274.48 204.45 285.52L204.45 285.52L204.45 356.74Q204.45 363.55 206.11 366.50Q207.77 369.44 211.59 369.44Z" /><path fill="#000000" d="M288.37 395.01L258.65 395.01L258.65 270.50L288.37 270.50L288.37 286.35Q290.03 279.21 294.55 274.19Q299.08 269.17 307.13 269.17L307.13 269.17Q320.08 269.17 325.93 277.14Q331.78 285.11 331.78 298.97L331.78 298.97L331.78 395.01L302.48 395.01L302.48 302.04Q302.48 298.39 300.99 295.28Q299.49 292.16 295.84 292.16L295.84 292.16Q292.44 292.16 290.82 294.53Q289.20 296.89 288.78 300.42Q288.37 303.95 288.37 307.44L288.37 307.44L288.37 395.01Z" /><path fill="#000000" d="M373.62 395.01L343.40 395.01L343.40 248.92L373.62 248.92L373.62 395.01Z" /><path fill="#000000" d="M415.12 262.86L385.41 262.86L385.41 238.12L415.12 238.12L415.12 262.86ZM415.12 395.01L385.41 395.01L385.41 270.50L415.12 270.50L415.12 395.01Z" /><path fill="#000000" d="M456.63 395.01L426.91 395.01L426.91 270.50L456.63 270.50L456.63 286.35Q458.29 279.21 462.81 274.19Q467.33 269.17 475.39 269.17L475.39 269.17Q488.33 269.17 494.19 277.14Q500.04 285.11 500.04 298.97L500.04 298.97L500.04 395.01L470.74 395.01L470.74 302.04Q470.74 298.39 469.24 295.28Q467.75 292.16 464.10 292.16L464.10 292.16Q460.69 292.16 459.07 294.53Q457.46 296.89 457.04 300.42Q456.63 303.95 456.63 307.44L456.63 307.44L456.63 395.01Z" /><path fill="#000000" d="M546.52 396.34L546.52 396.34Q533.24 396.34 525.36 391.36Q517.47 386.38 514.07 377.00Q510.66 367.62 510.66 354.42L510.66 354.42L510.66 304.36Q510.66 287.02 520.63 278.09Q530.59 269.17 548.02 269.17L548.02 269.17Q583.88 269.17 583.88 304.36L583.88 304.36L583.88 313.41Q583.88 329.85 583.54 335.49L583.54 335.49L540.38 335.49L540.38 359.56Q540.38 362.89 540.80 366.08Q541.21 369.28 542.66 371.35Q544.12 373.43 547.35 373.43L547.35 373.43Q552.00 373.43 553.16 369.40Q554.33 365.38 554.33 358.90L554.33 358.90L554.33 346.95L583.88 346.95L583.88 354.00Q583.88 367.95 580.43 377.37Q576.99 386.79 568.81 391.56Q560.63 396.34 546.52 396.34ZM540.21 303.95L540.21 320.72L554.33 320.72L554.33 303.95Q554.33 297.23 552.67 294.28Q551.01 291.33 547.69 291.33L547.69 291.33Q544.12 291.33 542.17 294.15Q540.21 296.98 540.21 303.95L540.21 303.95Z" /></g></g><g transform="translate(114 225)" data-asset-index="-1"><g clip-path="url(#assetClipPath_-QqEXILe)" transform="scale(1 1)" data-asset-index="-1"><path fill="#000000" d="M210.84 396.34L210.84 396.34Q197.56 396.34 189.67 391.36Q181.79 386.38 178.38 377.00Q174.98 367.62 174.98 354.42L174.98 354.42L174.98 304.36Q174.98 287.02 184.94 278.09Q194.90 269.17 212.33 269.17L212.33 269.17Q248.19 269.17 248.19 304.36L248.19 304.36L248.19 313.41Q248.19 329.85 247.86 335.49L247.86 335.49L204.70 335.49L204.70 359.56Q204.70 362.89 205.11 366.08Q205.53 369.28 206.98 371.35Q208.43 373.43 211.67 373.43L211.67 373.43Q216.32 373.43 217.48 369.40Q218.64 365.38 218.64 358.90L218.64 358.90L218.64 346.95L248.19 346.95L248.19 354.00Q248.19 367.95 244.75 377.37Q241.30 386.79 233.13 391.56Q224.95 396.34 210.84 396.34ZM204.53 303.95L204.53 320.72L218.64 320.72L218.64 303.95Q218.64 297.23 216.98 294.28Q215.32 291.33 212.00 291.33L212.00 291.33Q208.43 291.33 206.48 294.15Q204.53 296.98 204.53 303.95L204.53 303.95Z" /><path fill="#000000" d="M283.47 396.34L283.47 396.34Q274.84 396.34 269.78 393.18Q264.71 390.03 262.22 384.47Q259.73 378.91 258.94 371.44Q258.15 363.96 258.15 355.41L258.15 355.41L258.15 301.29Q258.15 286.93 263.26 278.05Q268.36 269.17 280.57 269.17L280.57 269.17Q289.61 269.17 294.47 273.03Q299.33 276.89 301.98 283.78L301.98 283.78L301.98 248.92L332.20 248.92L332.20 395.01L301.98 395.01L301.98 381.81Q299.49 388.53 295.38 392.44Q291.27 396.34 283.47 396.34ZM294.84 373.10L294.84 373.10Q299.08 373.10 300.53 369.69Q301.98 366.29 301.98 357.49L301.98 357.49L301.98 305.11Q301.98 300.71 300.70 296.44Q299.41 292.16 295.01 292.16L295.01 292.16Q290.20 292.16 288.95 296.23Q287.71 300.30 287.71 305.11L287.71 305.11L287.71 357.49Q287.71 373.10 294.84 373.10Z" /><path fill="#000000" d="M367.64 396.34L367.64 396.34Q357.68 396.34 352.41 392.19Q347.14 388.04 345.23 380.61Q343.32 373.18 343.32 363.22L343.32 363.22L343.32 270.50L373.20 270.50L373.20 359.73Q373.20 367.20 374.37 370.15Q375.53 373.10 379.84 373.10L379.84 373.10Q384.49 373.10 385.70 368.94Q386.90 364.79 386.90 358.24L386.90 358.24L386.90 270.50L416.53 270.50L416.53 395.01L386.82 395.01L386.82 381.73Q383.99 388.87 380.05 392.60Q376.11 396.34 367.64 396.34Z" /><path fill="#000000" d="M465.92 396.34L465.92 396.34Q445.00 396.34 436.25 385.63Q427.49 374.92 427.49 354.17L427.49 354.17L427.49 315.82Q427.49 300.21 430.81 289.84Q434.13 279.46 442.43 274.32Q450.73 269.17 465.51 269.17L465.51 269.17Q475.80 269.17 483.98 272.82Q492.15 276.47 496.88 283.53Q501.62 290.59 501.62 300.80L501.62 300.80L501.62 319.80L471.32 319.80L471.32 302.37Q471.32 298.06 470.07 295.11Q468.83 292.16 464.68 292.16L464.68 292.16Q457.37 292.16 457.37 302.54L457.37 302.54L457.37 362.89Q457.37 366.70 459.03 369.90Q460.69 373.10 464.51 373.10L464.51 373.10Q468.41 373.10 469.95 369.98Q471.48 366.87 471.48 362.72L471.48 362.72L471.48 341.80L501.62 341.80L501.62 363.55Q501.62 373.84 497.01 381.19Q492.40 388.53 484.35 392.44Q476.30 396.34 465.92 396.34Z" /><path fill="#000000" d="M534.65 396.34L534.65 396.34Q524.28 396.34 518.84 391.52Q513.40 386.71 511.41 378.32Q509.42 369.94 509.42 359.32L509.42 359.32Q509.42 347.94 511.66 340.68Q513.90 333.42 519.34 328.77Q524.78 324.12 534.32 320.88L534.32 320.88L552.75 314.57L552.75 301.79Q552.75 291.75 546.19 291.75L546.19 291.75Q540.21 291.75 540.21 299.88L540.21 299.88L540.21 307.35L511.33 307.35Q511.25 306.69 511.25 305.65Q511.25 304.61 511.25 303.29L511.25 303.29Q511.25 284.69 520.00 276.93Q528.76 269.17 547.77 269.17L547.77 269.17Q557.73 269.17 565.62 272.70Q573.50 276.23 578.11 283.11Q582.71 290.00 582.71 300.13L582.71 300.13L582.71 395.01L553.16 395.01L553.16 380.23Q551.01 388.04 546.03 392.19Q541.04 396.34 534.65 396.34ZM546.36 373.26L546.36 373.26Q550.01 373.26 551.34 370.19Q552.67 367.12 552.67 363.55L552.67 363.55L552.67 328.85Q546.52 331.34 543.12 335.12Q539.72 338.90 539.72 346.20L539.72 346.20L539.72 362.22Q539.72 373.26 546.36 373.26Z" /><path fill="#000000" d="M619.74 396.34L619.74 396.34Q607.70 396.34 603.51 391.23Q599.32 386.13 599.32 375.59L599.32 375.59L599.32 297.97L590.93 297.97L590.93 275.31L599.32 275.31L599.32 248.92L628.20 248.92L628.20 275.31L636.59 275.31L636.59 297.97L628.20 297.97L628.20 368.61Q628.20 371.68 629.20 372.93Q630.20 374.17 633.02 374.17L633.02 374.17Q635.01 374.17 636.59 373.84L636.59 373.84L636.59 394.10Q635.59 394.43 630.36 395.38Q625.13 396.34 619.74 396.34Z" /><path fill="#000000" d="M675.60 262.86L645.88 262.86L645.88 238.12L675.60 238.12L675.60 262.86ZM675.60 395.01L645.88 395.01L645.88 270.50L675.60 270.50L675.60 395.01Z" /><path fill="#000000" d="M723.58 396.34L723.58 396.34Q686.39 396.34 686.39 357.74L686.39 357.74L686.39 307.77Q686.39 290.17 696.27 279.67Q706.15 269.17 723.58 269.17L723.58 269.17Q741.09 269.17 750.97 279.67Q760.85 290.17 760.85 307.77L760.85 307.77L760.85 357.74Q760.85 396.34 723.58 396.34ZM723.58 373.43L723.58 373.43Q727.31 373.43 728.93 370.73Q730.55 368.03 730.55 363.88L730.55 363.88L730.55 303.04Q730.55 292.16 723.58 292.16L723.58 292.16Q716.61 292.16 716.61 303.04L716.61 303.04L716.61 363.88Q716.61 368.03 718.23 370.73Q719.84 373.43 723.58 373.43Z" /><path fill="#000000" d="M801.52 395.01L771.81 395.01L771.81 270.50L801.52 270.50L801.52 286.35Q803.18 279.21 807.71 274.19Q812.23 269.17 820.28 269.17L820.28 269.17Q833.23 269.17 839.08 277.14Q844.94 285.11 844.94 298.97L844.94 298.97L844.94 395.01L815.63 395.01L815.63 302.04Q815.63 298.39 814.14 295.28Q812.65 292.16 808.99 292.16L808.99 292.16Q805.59 292.16 803.97 294.53Q802.35 296.89 801.94 300.42Q801.52 303.95 801.52 307.44L801.52 307.44L801.52 395.01Z" /></g></g><g transform="translate(274 437)" data-asset-index="-1"><g clip-path="url(#assetClipPath_wu-VuBCK)" transform="scale(1 1)" data-asset-index="-1"><path fill="#000000" d="M219.25 396.34L219.25 396.34Q182.40 396.34 182.40 358.98L182.40 358.98L182.40 349.11L212.28 349.11L212.28 363.72Q212.28 367.95 213.94 370.36Q215.60 372.76 219.25 372.76L219.25 372.76Q225.73 372.76 225.73 363.05L225.73 363.05Q225.73 354.92 222.33 350.89Q218.92 346.86 214.03 343.13L214.03 343.13L198.17 330.93Q190.70 325.12 186.80 318.64Q182.90 312.17 182.90 300.63L182.90 300.63Q182.90 289.92 188.00 282.95Q193.11 275.98 201.53 272.57Q209.96 269.17 219.75 269.17L219.75 269.17Q255.94 269.17 255.94 305.28L255.94 305.28L255.94 307.60L225.23 307.60L225.23 302.87Q225.23 299.14 223.94 295.65Q222.66 292.16 218.92 292.16L218.92 292.16Q212.61 292.16 212.61 298.80L212.61 298.80Q212.61 305.53 217.93 309.35L217.93 309.35L236.35 322.79Q244.99 329.02 250.84 337.57Q256.69 346.12 256.69 360.31L256.69 360.31Q256.69 377.91 246.69 387.12Q236.69 396.34 219.25 396.34Z" /><path fill="#000000" d="M300.69 396.34L300.69 396.34Q287.40 396.34 279.52 391.36Q271.63 386.38 268.23 377.00Q264.83 367.62 264.83 354.42L264.83 354.42L264.83 304.36Q264.83 287.02 274.79 278.09Q284.75 269.17 302.18 269.17L302.18 269.17Q338.04 269.17 338.04 304.36L338.04 304.36L338.04 313.41Q338.04 329.85 337.71 335.49L337.71 335.49L294.54 335.49L294.54 359.56Q294.54 362.89 294.96 366.08Q295.37 369.28 296.83 371.35Q298.28 373.43 301.52 373.43L301.52 373.43Q306.16 373.43 307.33 369.40Q308.49 365.38 308.49 358.90L308.49 358.90L308.49 346.95L338.04 346.95L338.04 354.00Q338.04 367.95 334.59 377.37Q331.15 386.79 322.97 391.56Q314.80 396.34 300.69 396.34ZM294.38 303.95L294.38 320.72L308.49 320.72L308.49 303.95Q308.49 297.23 306.83 294.28Q305.17 291.33 301.85 291.33L301.85 291.33Q298.28 291.33 296.33 294.15Q294.38 296.98 294.38 303.95L294.38 303.95Z" /><path fill="#000000" d="M379.04 395.01L348.83 395.01L348.83 270.50L379.04 270.50L379.04 284.36Q381.20 277.14 386.68 273.07Q392.16 269.00 400.46 269.00L400.46 269.00L400.46 293.82Q396.81 293.82 391.75 294.61Q386.68 295.40 382.86 296.77Q379.04 298.14 379.04 299.80L379.04 299.80L379.04 395.01Z" /><path fill="#000000" d="M457.99 395.01L423.62 395.01L403.62 270.50L433.42 270.50L440.55 353.67L448.61 270.50L478.32 270.50L457.99 395.01Z" /><path fill="#000000" d="M515.68 262.86L485.96 262.86L485.96 238.12L515.68 238.12L515.68 262.86ZM515.68 395.01L485.96 395.01L485.96 270.50L515.68 270.50L515.68 395.01Z" /><path fill="#000000" d="M564.90 396.34L564.90 396.34Q543.98 396.34 535.22 385.63Q526.47 374.92 526.47 354.17L526.47 354.17L526.47 315.82Q526.47 300.21 529.79 289.84Q533.11 279.46 541.41 274.32Q549.71 269.17 564.48 269.17L564.48 269.17Q574.78 269.17 582.95 272.82Q591.13 276.47 595.86 283.53Q600.59 290.59 600.59 300.80L600.59 300.80L600.59 319.80L570.29 319.80L570.29 302.37Q570.29 298.06 569.05 295.11Q567.80 292.16 563.65 292.16L563.65 292.16Q556.35 292.16 556.35 302.54L556.35 302.54L556.35 362.89Q556.35 366.70 558.01 369.90Q559.67 373.10 563.49 373.10L563.49 373.10Q567.39 373.10 568.93 369.98Q570.46 366.87 570.46 362.72L570.46 362.72L570.46 341.80L600.59 341.80L600.59 363.55Q600.59 373.84 595.99 381.19Q591.38 388.53 583.33 392.44Q575.28 396.34 564.90 396.34Z" /><path fill="#000000" d="M645.83 396.34L645.83 396.34Q632.55 396.34 624.67 391.36Q616.78 386.38 613.38 377.00Q609.97 367.62 609.97 354.42L609.97 354.42L609.97 304.36Q609.97 287.02 619.93 278.09Q629.89 269.17 647.33 269.17L647.33 269.17Q683.19 269.17 683.19 304.36L683.19 304.36L683.19 313.41Q683.19 329.85 682.85 335.49L682.85 335.49L639.69 335.49L639.69 359.56Q639.69 362.89 640.10 366.08Q640.52 369.28 641.97 371.35Q643.42 373.43 646.66 373.43L646.66 373.43Q651.31 373.43 652.47 369.40Q653.63 365.38 653.63 358.90L653.63 358.90L653.63 346.95L683.19 346.95L683.19 354.00Q683.19 367.95 679.74 377.37Q676.30 386.79 668.12 391.56Q659.94 396.34 645.83 396.34ZM639.52 303.95L639.52 320.72L653.63 320.72L653.63 303.95Q653.63 297.23 651.97 294.28Q650.31 291.33 646.99 291.33L646.99 291.33Q643.42 291.33 641.47 294.15Q639.52 296.98 639.52 303.95L639.52 303.95Z" /></g></g><g transform="translate(640 253)" data-asset-index="3"><g clip-path="url(#assetClipPath_0si7Y0iZ)" transform="scale(1.0863936806408707 1.09241518064146)" data-asset-index="3"><path d="m269.505 118.294-5.998-12.761-.996-10.944 4.556-14.72 5.088-12.093-106.982.934-7.809 27.757 6.356 15.901 6.272 8.648 100.071-1.116z" fill="#FFFFFF" id="XYfBGQVjcTOW84y_QV0RB" /><path d="m269.505 55.354-5.998-12.761-.996-10.944 4.556-14.72 5.088-12.092-106.982.933-7.809 27.757 6.356 15.901 6.272 8.648 100.071-1.116z" fill="#FFFFFF" id="TPCEl6SDt0EsCddt5m33o" /><path d="m83.145 52.777-3.061-12.981-.583-13.322 4.249-12.642 7.067-12.476 12.993-.144-7.064 12.911-4.195 12.408-.025.176.561 12.812 2.981 12.757.073.164 7.88 11.454-13.128.146z" fill="#F1ACCA" id="z4fD3yuKVXUTowJ1m6she" /><path d="m285.154 1.605c-58.406-.734-124.508-.127-182.49-.381l-6.9 12.611-4.248 12.637.583 13.323 3.061 12.98 7.656 11.131c33.562-.401 80.207.83 114.448-.077-.265-1.768.066-6.909.183-8.749-12.238.223-34.491.683-46.733-.052 0 .001-.357-.207-.357-.207l-4.674-7.8c.011-.233-3.213-8.84-3.14-9.074.03-4.928 1.249-14.393 2.744-19.097-.001 0 5.769-8.697 5.769-8.697l.372-.193c36.471 1.117 77.272-.559 113.757.599z" fill="#EE4878" id="EQ6BiGZEWUGa1h838Xlu" /><path d="m62.542 64.274-7.819-11.368-3.061-12.98-.583-13.323 4.249-12.641 7.043-12.436 6.615.074 6.548-.073-7.205 12.721-4.2 12.413-.025.176.561 12.812 2.981 12.756.073.164 8.008 11.641-8.466.095z" fill="#F1ACCA" id="Cx4aVaP-dJ6L93ub0nWud" /><path d="m292.075 117.565-24.85-.612-24.16.599-24.404-.599-24.146.6-24.005-.104-.368-.221-4.444-8.227-3.128-8.926-.026-.191.617-9.677 2.057-9.254.069-.165 5.771-8.698.371-.194 24.191.587 22.084-.54-.478-8.782-34.814.375-18.655-.2-37.203-.399-35.6.383-2.636 2.806-5.534 9.773-4.249 12.641.582 13.323 3.061 12.98 7.688 11.174 34.83-.376 38.297.412 17.356.187 55.589-.6 56.167.605zm-128.355-54.166" fill="#B25539" id="Yd976FG1iPb-WLYkhbT1B" /><path d="m66.737 52.906-3.061-12.98-.583-13.323 4.249-12.641 7.035-12.422 17.595-.196-7.234 12.775c-.027.175-4.264 12.413-4.226 12.588 0 0 .561 12.812.561 12.812l2.98 12.756c.028.235 7.958 11.551 8.044 11.751l-17.576.196z" fill="#EE4878" id="uhMHLL8BpIrLE2wjb7" /><path d="m21.358 64.005-6.596-.071-9.134-11.1-4.635-12.617.592-13.399 3.465-12.958c1.209-1.595 8.963-11.275 9.706-12.863l48.756.542-7.196 12.709c-.027.175-4.264 12.412-4.226 12.588 0 0 .561 12.813.561 12.813l2.98 12.756c.04.272 8.038 11.649 8.132 11.876z" fill="#EE4878" id="LVIJNjsTaFn5_3Iy5aE5S" /><path d="m247.381 63.915c.248-1.537-.117-6.933-.205-8.56 7.875-.528 27.476-.015 35.566.274.28 2.163.401 6.54.023 8.681z" fill="#EE4878" id="nyG-xXAFDtt0SDv93QYf" /><path d="m269.264 71.884-22.342.548.508-9.375h1.895l45.122.485-.025 4.434.056 4.52z" fill="#B25539" id="sWwxFxAMsEtWq3538213L" /><path d="m13.215 125.639-7.595-10.888-4.627-12.597.592-13.4 3.464-12.952 9.706-12.84 6.685.044 42.083.452-7.207 12.727-4.2 12.413-.026.176.562 12.812 2.98 12.756.073.164 8.034 11.678z" fill="#B25539" id="k_Y56Tl3BDOum7nskN4AB" /><path d="m62.515 126.17-7.792-11.327-3.061-12.98-.583-13.323 4.249-12.641 7.054-12.453 8.462.091 20.213-.218-7.285 12.866-4.2 12.413-.026.176.561 12.812 2.98 12.756.073.164 7.912 11.499-21.95.236z" fill="#C3ACF1" id="TyLrMEYcw1BdPABTNbOpG" /><g fill="#231F20" id="SrFQAFaKRstoWXYaCesaw"><path d="m282.292 65.305-53.769-.6-53.73.6-53.794-.6-53.735.6-52.25-.341-1.148-.547-8.955-10.882-.25-.436-4.571-12.443-.09-.584.634-13.565 3.426-12.807.266-.534 8.106-10.401 1.329-2.074 1.279-.691 53.924.6 53.892-.6 53.957.6 53.897-.6 53.955.6 1.483 1.488.029 7.958-1.539 1.5-22.765-.599-22.665.6-22.825-.6-22.67.6-21.998-.578-5.544 8.357-2.044 9.198-.582 9.38 3.097 8.833 4.407 7.302 21.6.578 22.341-.6 22.501.6 22.345-.6 22.483.6 1.456 1.388.32 4.308-.002.24-.291 3.38zm-161.293-3.6 53.794.6 53.73-.6 52.41.584.161-1.874-.211-2.836-21.048-.563-22.345.6-22.501-.6-22.341.6-22.5-.6-1.244-.725-5.043-8.416-3.248-9.266-.081-.589.641-10.033 2.13-9.585.214-.504 6.157-9.282 1.289-.67 22.75.6 22.67-.6 22.825.6 22.664-.6 21.305.559-.017-4.923-52.45-.582-53.897.6-53.957-.6-53.892.6-53.126-.591-.998 1.546-7.961 10.215-3.304 12.354-.565 12.78 4.379 11.921 8.346 10.143 51.522.336z" fill="#231F20" id="t0eGKGrRe45bqhLoacaG1" /><path d="m269.664 56.493-5.691-8.001-.242-.548-2.136-9.823-.582-9.802.083-.589 3.37-9.476 4.705-8.617 1.847-.685.001.001.274-.325.011.004.271-.32.59.23-.25.643.406-.241.324.546-.272.324.004.009-.904 1.07.331.181-4.647 8.512-3.131 8.858.556 9.381 2.013 9.177 5.514 7.753z" fill="#231F20" id="s3msPF7W6AsU0D4mvKsig" /><path d="m61.432 64.421-7.479-10.871-.224-.506-3.066-13.121-.577-13.184.077-.543 4.32-12.768 6.502-11.482 1.686-.712.001.001.369-.436.014.003.364-.43.638.175-.25.906.575-.267.279.601-.367.437.005.01-.907 1.075.203.115-6.43 11.357-4.07 12.106.558 12.764 2.931 12.431 7.319 10.639z" fill="#231F20" id="NpuXuPGwSg48YXE7KYk4G" /><path d="m73.445 64.421-7.478-10.871-.224-.506-3.067-13.121-.576-13.184.076-.543 4.321-12.768 6.502-11.482 1.686-.712.001.001.369-.436.014.003.364-.43.637.175-.249.906.574-.267.279.601-.366.437.004.01-.907 1.075.204.115-6.431 11.357-4.069 12.106.558 12.764 2.931 12.431 7.319 10.639z" fill="#231F20" id="hVtaPX_8eBgaa-t-_QqCJ" /><path d="m89.854 64.291-7.48-10.87-.224-.506-3.066-13.122-.576-13.183.076-.544 4.321-12.768 6.502-11.482 1.686-.711h.001l.369-.436.013.004.364-.431.638.175-.249.907.575-.267.279.6-.367.438.005.01-.908 1.075.204.115-6.431 11.356-4.069 12.107.558 12.763 2.931 12.432 7.319 10.638z" fill="#231F20" id="jqilfOMJpSP6ZOePkXg-V" /><path d="m101.867 64.291-7.479-10.87-.224-.506-3.066-13.122-.577-13.183.077-.544 4.31-12.749 6.586-12.037 2.632 1.44-6.522 11.921-4.073 12.117.558 12.763 2.931 12.432 7.319 10.638z" fill="#231F20" id="F4hSlWi8i5GnZgITc0F0_" /><path d="m161.596 64.421-7.478-10.871-.225-.506-3.066-13.121-.578-13.184.078-.543 4.32-12.768 7.027-12.41 2.612 1.479-6.957 12.284-4.07 12.106.559 12.764 2.931 12.431 7.318 10.639z" fill="#231F20" id="Cd4UoSRsXsIw4zY18-t" /><path d="m291.588 127.241-55.628-.6-55.589.6-55.653-.6-55.596.6-55.66-.6-1.213-.641-7.588-10.964-4.57-12.443-.091-.584.634-13.565 3.426-12.807.252-.517 9.515-12.587 1.213-.596 55.783.6 55.752-.6 55.815.6 55.757-.6 55.814.6 1.483 1.508-.021 3.908.05 4.012-1.536 1.519-24.623-.6-24.531.6-24.677-.6-24.535.6-23.854-.58-5.545 8.359-2.044 9.197-.582 9.381 3.108 8.866 4.199 7.743 23.622.104 24.235-.601 24.354.601 24.21-.601 24.339.6 1.463 1.495.027 7.688zm-166.869-3.599 55.653.6 55.589-.6 54.139.583-.017-4.708-22.807-.563-24.21.601-24.354-.601-24.205.601-24.554-.107-1.312-.785-4.778-8.849-3.248-9.266-.081-.589.641-10.033 2.13-9.585.214-.504 6.157-9.281 1.286-.671 24.609.6 24.535-.6 24.677.6 24.531-.6 23.14.562-.03-2.482.014-2.443-54.29-.584-55.757.6-55.815-.6-55.752.6-55.059-.592-8.881 11.75-3.309 12.364-.564 12.78 4.4 11.979 6.857 9.831 54.855.591z" fill="#231F20" id="N2djgJay0ie_5o4ixrKd" /><path d="m269.664 118.43-5.691-8.001-.242-.548-2.136-9.823-.582-9.802.083-.589 3.37-9.476 4.705-8.618 1.847-.684.001.001.274-.325.011.004.271-.32.59.229-.25.644.407-.24.324.546-.273.324.004.007-.904 1.071.331.181-4.647 8.512-3.131 8.858.556 9.382 2.013 9.176 5.514 7.752z" fill="#231F20" id="ptFPsevLODNYhsRahxT" /><path d="m61.432 126.358-7.479-10.871-.224-.507-3.066-13.121-.577-13.182.077-.543 4.32-12.77 6.502-11.481 2.61 1.478-6.43 11.357-4.07 12.106.558 12.763 2.931 12.431 7.319 10.639z" fill="#231F20" id="JbM46SpTbl-JM0USG9S91" /><path d="m88.887 126.358-7.478-10.871-.224-.507-3.067-13.121-.577-13.182.077-.543 4.321-12.77 6.501-11.481 2.611 1.478-6.431 11.357-4.069 12.106.558 12.763 2.931 12.431 7.319 10.639z" fill="#231F20" id="i3Nb25Q-lL50MJYOHBr9" /><path d="m161.596 126.358-7.478-10.871-.225-.507-3.066-13.121-.578-13.182.078-.543 4.32-12.77 6.502-11.481 2.611 1.478-6.431 11.357-4.07 12.106.559 12.763 2.931 12.431 7.318 10.639z" fill="#231F20" id="JoT4xkGsAUhizWA8VGz2Q" /><path d="m169.992 10.396 20.35.453 20.092-.6 20.092.6 20.096-.6 20.05.596-3.513 5.117-4.697 8.813-18.391-3.381-18.532-2.192-18.353-3.378-18.536-2.193z" fill="#231F20" id="NmXFO5RTq6vq-b_pvCsaW" /><path d="m169.992 71.531 20.35.453 20.092-.6h40.188l20.05.596-6.816 10.689-1.394 3.241-18.391-3.381-18.532-2.192-18.353-3.379-18.536-2.192z" fill="#231F20" id="EXKmSyBR9MHwktZ5wbDLx" /></g><path d="m243.967 92.105-2.664-3.49-9.203-8.536-.471-.02-2.532 1.966-6.069 6.056-5.918 4.229-1.002-9.307.595-10.829-.595-10.986.595-10.826-.587-11.153 10.896-.632 10.382.599 11.063-.528-.538 11.726.596 11.149-.596 10.987.596 11.145-1.837 10.934z" fill="#AAD037" id="eFZSfCyAJllkKEle3Cw6Y" /><path d="m215.159 39.485h3.001v1.098h-3.001z" fill="#231F20" transform="matrix(.9985 -.0542 .0542 .9985 -1.8525 11.8103)" id="uaKDmwdi0556mW5Q1MZjc" /><path d="m246.423 95.713-3.277-3.036-2.661-3.485-8.667-8.013-2.129 1.653-5.936 5.936-5.449 6.046-2.612-.925-.58-10.967.596-10.829-.596-10.986.596-10.826-.493-9.184-8.911-.516-10.266.595-.174-2.995 10.526-.6 10.273.595 10.437-.595 10.273.596 10.489-.501 1.569 1.567-.515 11.202.596 11.16-.596 10.983.596 11.146-.578 10.953zm-.973-4.962.657.602.406-7.697-.596-11.149.596-10.983-.596-11.141.442-9.631-8.923.426-.158-.001-10.266-.595-8.795.51.489 9.273-.596 10.825.596 10.986-.596 10.83.383 7.118 3.084-3.421 6.196-6.182 3.208-2.491 1.938.083 9.869 9.155z" fill="#231F20" id="BmfPaKkhi-9KUS7lpfSBh" /></g></g><g transform="translate(110 663)" data-asset-index="4"><g clip-path="url(#assetClipPath_eXeSLOaA)" transform="scale(0.9293416795566883 0.9353950047625295)" data-asset-index="4"><path d="m247.336 173.827h10.439 10.441 10.445 10.442 10.449 10.449l1.455-.162 1.379-.483 1.228-.793.988-1.076.651-1.307.227-1.441v-2.503-2.507-2.506-2.508-2.511-2.512l-.228-1.441-.651-1.307-.988-1.076-1.227-.792-1.38-.484-1.454-.161h-8.67-8.673-8.676-8.673-8.679-8.679" fill="#F7B3C7" id="UdLTXHl8O-nsErmj5N0H2" /><path d="m310.001 175.327h-64.165v-3h64.082l1.203-.134 1.05-.368.917-.592.715-.779.453-.91.173-1.096v-14.812l-.173-1.097-.454-.91-.715-.779-.916-.592-1.051-.367-1.202-.134h-53.467v-3l53.715.009 1.785.237 1.698.639 1.518 1.038.988 1.076.238.345.651 1.306.139.436.246 1.675-.018 15.281-.228 1.441-.139.435-.65 1.306-.238.346-1.279 1.322-1.546.949-1.71.558z" fill="#231F20" id="RTuwEAroezUm4Ehr3VnUZ" /><path d="m226.397 173.827h3.239 3.242 3.243 3.243 3.249 3.248l2.456-.324 2.286-.954 1.963-1.511 1.51-1.962.954-2.286.324-2.456v-25.555-25.555-25.555-25.557-25.56-25.56l-.324-2.455-.954-2.286-1.511-1.963-1.962-1.511-2.286-.953-2.456-.324h-2.889-2.892-2.893-2.893-2.899-2.898" fill="#F7B3C7" id="N_tgGrwyDXgt3aTdVxq5" /><path d="m245.861 175.327h-20.964v-3h20.866l2.16-.285 1.921-.802 1.652-1.272 1.272-1.651.801-1.921.285-2.16v-153.145l-.286-2.16-.801-1.921-1.271-1.652-1.652-1.272-1.921-.801-2.16-.285h-18.766v-3l19.061.013 2.455.324.381.103 2.286.953.338.196 2.236 1.784 1.511 1.963.195.337.954 2.286.103.381.337 2.652-.013 153.539-.324 2.455-.103.381-.953 2.286-.196.338-1.784 2.235-1.963 1.511-.338.196-2.285.954-.382.103z" fill="#231F20" id="Zt2uK7uZqDsm8uaROLIo_" /><path d="m12.353 173.827h36.765 36.765 36.767 36.766 36.771 36.771l2.807-.371 2.614-1.09 2.244-1.728 1.727-2.243 1.09-2.614.37-2.807v-25.102-25.102-25.102-25.102-25.107-25.106l-.37-2.808-1.09-2.613-1.728-2.244-2.244-1.728-2.613-1.089-2.807-.371h-36.765-36.765-36.767-36.766-36.771-36.771l-2.808.371-2.613 1.09-2.244 1.727-1.728 2.244-1.089 2.613-.371 2.808v25.101 25.102 25.102 25.103 25.107 25.106l.371 2.807 1.09 2.614 1.727 2.244 2.244 1.727 2.613 1.09z" fill="#FFFFFF" id="tYTDL5RfSRMd-23hBW_jD" /><g fill="#231F20" id="b_PPGVqN_Rjaokrt68qKL"><path d="m232.958 175.327-220.801-.013-2.807-.37-.381-.103-2.613-1.09-.337-.196-2.519-2.001-1.728-2.244-.196-.338-1.09-2.614-.103-.381-.383-3.003.013-150.818.37-2.807.103-.381 1.09-2.613.196-.338 1.727-2.244.274-.273 2.244-1.728.338-.196 2.614-1.09.381-.103 3.003-.383 220.801.013 2.807.371.381.103 2.613 1.09.338.196 2.517 2.001 1.727 2.244.196.338 1.09 2.614.103.381.383 3.004-.013 150.818-.371 2.807-.103.381-1.09 2.613-.196.338-2.001 2.517-2.244 1.728-.338.196-2.614 1.09-.381.103zm-220.507-3h220.408l2.512-.331 2.248-.938 1.933-1.489 1.488-1.933.938-2.248.332-2.512v-150.425l-.332-2.512-.938-2.248-1.488-1.933-1.933-1.488-2.248-.938-2.512-.332h-220.408l-2.512.331-2.248.938-1.934 1.489-1.488 1.933-.937 2.248-.332 2.512v150.424l.332 2.512.938 2.248 1.488 1.933 1.933 1.488 2.248.938z" fill="#231F20" id="cHrJOmdUzs5F-i4S0Ljy" /><path d="m207.29 173.426h-3v-8.765l-.43-3.259-1.228-2.943-1.948-2.53-2.53-1.948-2.943-1.227-3.259-.431h-138.593l-3.26.43-2.943 1.228-2.53 1.948-1.948 2.53-1.227 2.943-.43 3.259v8.765h-3l.012-9.06.47-3.554.102-.381 1.38-3.309.196-.337 2.46-3.114 2.841-2.187.338-.196 3.308-1.38.381-.103 3.751-.482 138.987.013 3.554.469.381.103 3.308 1.38.338.196 3.114 2.46 2.187 2.841.196.337 1.38 3.309.103.381.482 3.751z" fill="#231F20" id="CLGTAQ1LbKrTHMBmzOzBY" /><path d="m80.203 115.357-.441-2.967 5.853-.87 11.056-4.312 5.078-3.259 5.204-3.122 1.396-1.322-.362-3.37.001-.325.758-6.405 1.09-2.838.909-2.818.501-.719 3.446-2.705 1.268-.281 2.685.629.913.639.757 1.155.244.763.176 4.457-.134.682-2.558 5.606-.292.426-4.321 4.423-1.939 1.836.066.614 5.173 5.979 1.157.69 3.253.363 3.307-.561 3.495-1.845 3.305-1.951 2.408-3.08 2.214-3.125.896-3.795 2.946.144.916 6.794 1.297 2.701 2.586 1.948 2.659 1.743 1.995.305 6.562.817 1.997-.512.745 2.906-2.273.583-.558.035-6.886-.858-2.359-.361-.597-.229-3.012-1.979-2.957-2.223-.45-.549-1.557-3.244-.134-.449-.131-.97-1.495 2.108-2.625 3.36-.42.368-3.612 2.13-3.77 1.992-.45.153-3.751.636-.417.012-3.785-.422-.602-.202-1.644-.98-.366-.307-5.564-6.431-.418.347-5.306 3.183-5.437 3.454-11.667 4.51zm30.785-19.381.1.935.237-.224 4.096-4.195 2.301-5.044-.145-3.685-.2-.306-1.4-.328-2.519 1.977-.795 2.458-1.047 2.733z" fill="#231F20" id="Z1f3yHCeb7-Oa8fp6XoqM" /></g></g></g><g transform="translate(110 456)" data-asset-index="5"><g clip-path="url(#assetClipPath_gMmzuoLc)" transform="scale(0.9956787542067427 0.9949324772492106)" data-asset-index="5"><path d="m115.401 141.314-7.976-9.895-8.156-9.626-7.845-9.876-8.159-9.628-7.94-9.919-5.201 11.654-5.488 11.433-5.122 11.596-5.49 11.437-5.248 11.658 2.828-12.438 2.505-12.412 2.895-12.323 2.506-12.416 2.869-12.425-12.352 3.273-12.36 2.911-12.259 3.297-12.365 2.912-12.385 3.238 11.504-5.615 11.28-5.851 11.454-5.492 11.285-5.853 11.517-5.574-10.202-7.573-9.925-7.804-10.164-7.483-9.928-7.807-10.196-7.62 11.516 5.437 11.56 5.114 11.39 5.477 11.564 5.116 11.494 5.473-.37-12.715-.016-12.642-.416-12.63-.015-12.646-.33-12.74 2.858 12.394 3.136 12.23 2.746 12.319 3.138 12.235 2.814 12.399 9.741-8.283 9.905-7.961 9.646-8.265 9.908-7.964 9.786-8.266-7.953 10.019-7.651 10.136-7.963 9.885-7.653 10.139-7.984 9.989 12.517 2.386 12.367 2.716 12.444 2.323 12.372 2.716 12.531 2.432-12.775.099-12.675.409-12.678.008-12.68.409-12.77.056 5.867 11.259 5.517 11.347 5.871 11.162 5.518 11.351z" fill="#CAE062" id="Mf_DFkdi763j35Ome3ny8" /><path d="m50.143 150.764-2.83-.948 2.828-12.439 2.498-12.377 2.9-12.369 2.5-12.37 2.318-10.041-9.947 2.636-12.4 2.921-12.21 3.287-12.411 2.923-12.351 3.229-1.038-2.799 11.5-5.617 11.247-5.835 11.5-5.512 11.243-5.83 9.326-4.515-8.214-6.1-9.958-7.829-10.126-7.452-9.967-7.835-10.166-7.6 1.538-2.558 11.516 5.437 11.527 5.1 11.433 5.5 11.521 5.1 9.316 4.429-.3-10.263-.016-12.683-.415-12.583-.015-12.692-.329-12.703 2.961-.376 2.857 12.4 3.128 12.194 2.757 12.365 3.127 12.188 2.276 10.025 7.854-6.679 9.937-7.993 9.61-8.235 9.945-7.994 9.757-8.243 2.143 2.079-7.953 10.02-7.628 10.106-7.993 9.923-7.624 10.1-6.456 8.078 10.073 1.92 12.408 2.726 12.4 2.313 12.418 2.726 12.5 2.425-.274 2.972-12.776.1-12.638.408-12.725.009-12.633.408-10.35.046 4.73 9.077 5.535 11.384 5.85 11.12 5.54 11.393 5.824 11.266-2.5 1.63-7.976-9.9-8.133-9.6-7.882-9.907-8.129-9.592-6.429-8.029-4.2 9.406-5.5 11.471-5.1 11.553-5.51 11.481zm11.857-64.08 1.845 1.788-2.873 12.428-2.5 12.376-2.906 12.369-2.146 10.635 4.738-9.872 5.1-11.553 5.508-11.476 5.183-11.616 2.541-.326 7.94 9.918 8.133 9.6 7.874 9.912 7.034 8.3-4.784-9.839-5.85-11.12-5.532-11.396-5.848-11.221 1.323-2.191 12.77-.056 12.639-.408 12.725-.009 10.883-.352-10.657-2.342-12.4-2.314-12.414-2.725-12.473-2.377-.891-2.41 7.984-9.989 7.628-10.106 7.992-9.923 6.54-8.665-8.522 6.85-9.61 8.235-9.941 7.991-9.709 8.257-2.435-.811-2.814-12.4-3.128-12.193-2.757-12.365-2.7-10.52.014 10.953.416 12.579.017 12.689.369 12.674-2.144 1.4-11.494-5.471-11.526-5.1-11.432-5.492-9.961-4.41 8.585 6.75 10.126 7.46 9.963 7.833 10.169 7.547-.24 2.555-11.518 5.57-11.247 5.834-11.5 5.512-9.651 5.007 10.625-2.5 12.213-3.286 12.406-2.922z" fill="#231F20" id="MIJxGpW4Ajr0nWCbXFOis" /></g></g></svg>